<?xml version="1.0" encoding="utf-8"?>
<!-- Generator: Adobe Illustrator 16.0.0, SVG Export Plug-In . SVG Version: 6.00 Build 0)  -->
<!DOCTYPE svg PUBLIC "-//W3C//DTD SVG 1.1//EN" "http://www.w3.org/Graphics/SVG/1.1/DTD/svg11.dtd">
<svg version="1.1" id="Capa_1" xmlns="http://www.w3.org/2000/svg" xmlns:xlink="http://www.w3.org/1999/xlink" x="0px" y="0px"
	 width="2000px" height="250px" viewBox="0 0 2000 250" enable-background="new 0 0 2000 250" xml:space="preserve">
<g opacity="0.2">
	<polygon fill="#00A0C6" points="227.946,50.608 205.153,50.608 292.372,198.166 262.447,198.166 292.372,248.742 345.083,248.742 	
		"/>
	<polygon fill="#008837" points="262.45,198.135 217.047,198.135 246.965,248.742 227.946,248.742 292.372,248.742 	"/>
	<polygon fill="#F0047F" points="32.087,50.608 -62.439,50.608 129.796,248.742 175.235,248.742 -17.029,50.608 	"/>
	<polygon fill="#FF0000" points="32.087,50.608 -17.029,50.608 175.235,248.742 227.946,248.742 178.855,198.166 175.235,198.166 	
		"/>
	<polygon points="217.015,198.135 178.855,198.135 227.946,248.742 246.94,248.742 	"/>
	<polygon fill="#FFFF00" points="175.232,0 -17,0 32.084,50.608 129.795,50.608 205.15,50.608 	"/>
	<polygon fill="#008837" points="205.153,50.608 129.793,50.608 175.235,50.608 262.447,198.166 292.372,198.166 	"/>
	<polygon fill="#008837" points="175.232,50.608 129.795,50.608 217.015,198.166 262.447,198.166 	"/>
	<polygon fill="#FF0000" points="35.71,50.608 32.087,50.608 175.232,198.166 178.858,198.166 	"/>
	<polygon points="129.795,50.608 35.71,50.608 178.858,198.166 217.018,198.166 	"/>
</g>
<g opacity="0.2">
	<polygon fill="#00A0C6" points="1770.233,50.608 1793.025,50.608 1705.807,198.166 1735.731,198.166 1705.807,248.742 
		1653.096,248.742 	"/>
	<polygon fill="#008837" points="1735.729,198.135 1781.132,198.135 1751.214,248.742 1770.233,248.742 1705.807,248.742 	"/>
	<polygon fill="#F0047F" points="1966.092,50.608 2060.618,50.608 1868.382,248.742 1822.944,248.742 2015.208,50.608 	"/>
	<polygon fill="#FF0000" points="1966.092,50.608 2015.208,50.608 1822.944,248.742 1770.233,248.742 1819.323,198.166 
		1822.944,198.166 	"/>
	<polygon points="1781.163,198.135 1819.323,198.135 1770.233,248.742 1751.239,248.742 	"/>
	<polygon fill="#FFFF00" points="1822.946,0 2015.179,0 1966.095,50.608 1868.384,50.608 1793.028,50.608 	"/>
	<polygon fill="#008837" points="1793.025,50.608 1868.386,50.608 1822.944,50.608 1735.731,198.166 1705.807,198.166 	"/>
	<polygon fill="#008837" points="1822.946,50.608 1868.384,50.608 1781.163,198.166 1735.731,198.166 	"/>
	<polygon fill="#FF0000" points="1962.468,50.608 1966.092,50.608 1822.946,198.166 1819.32,198.166 	"/>
	<polygon points="1868.384,50.608 1962.468,50.608 1819.32,198.166 1781.161,198.166 	"/>
</g>
</svg>
