<?xml version="1.0" encoding="utf-8"?>
<!-- Generator: Adobe Illustrator 16.0.0, SVG Export Plug-In . SVG Version: 6.00 Build 0)  -->
<!DOCTYPE svg PUBLIC "-//W3C//DTD SVG 1.1//EN" "http://www.w3.org/Graphics/SVG/1.1/DTD/svg11.dtd">
<svg version="1.1" id="Capa_2" xmlns="http://www.w3.org/2000/svg" xmlns:xlink="http://www.w3.org/1999/xlink" x="0px" y="0px"
	 width="2000px" height="1400px" viewBox="0 0 2000 1400" enable-background="new 0 0 2000 1400" xml:space="preserve">
<g opacity="0.2">
	<path fill="#FFFF00" d="M729.118,767.336l-56.124,4.585c0.616,1.069,1.65,2.546,2.285,4.042l56.246-4.997
		C730.836,769.915,730.146,768.406,729.118,767.336z M462.406,1397.271c-9.423,1.772-19.347,2.596-29.359,3.119
		c8.378,0.395,16.857,0.609,25.335,0.609c10.011,0,19.938-0.28,29.76-0.838C479.65,1399.669,470.8,1398.157,462.406,1397.271z"/>
	<path fill="#FFFF00" d="M462.406,1397.271c-9.423,1.772-19.347,2.596-29.359,3.119c8.378,0.395,16.857,0.609,25.335,0.609
		c10.011,0,19.938-0.28,29.76-0.838C479.65,1399.669,470.8,1398.157,462.406,1397.271z"/>
	<path fill="#FFFF00" d="M729.118,767.336l-56.124,4.585c0.616,1.069,1.65,2.546,2.285,4.042l56.246-4.978
		C730.836,769.915,730.146,768.406,729.118,767.336z"/>
	<path fill="#00A0C6" d="M778.513,573.763c32.959,38.19,59.882,81.936,79.562,130.271l-26.378,2.168
		c9.956,17.252,18.604,35.521,26.378,54.319l-126.582,10.479c1.125,1.643,1.862,3.301,2.973,4.994l182.8-15.476
		C887.051,686.198,839.058,622.049,778.513,573.763z"/>
	<path fill="#008837" d="M831.682,706.201l-48.779,4.065c9.211,16.273,17.251,33.019,24.127,50.253l-77.91,6.405
		c1.061,1.48,1.732,2.977,2.375,4.061l126.582-10.466C850.302,741.722,841.638,723.453,831.682,706.201z"/>
	<path fill="#00A0C6" d="M436.766,643.498c-121.282,14.095-217.702,127.273-229.292,269.736
		c7.887,97.244,55.55,181.169,123.741,228.685c-40.597-53.133-65.851-123.322-65.851-200.673
		c0-142.839,86.002-262.844,200.846-292.146C456.432,646.725,446.88,644.862,436.766,643.498z"/>
	<path fill="#008837" d="M411.095,642.354c-55.654,0-107.154,20.744-148.968,56.002c-34.839,51.154-55.599,115.727-55.599,186.438
		c0,9.316,0.321,18.929,0.904,28.423c11.616-142.411,108.033-255.59,229.317-269.686
		C428.423,642.743,419.606,642.354,411.095,642.354z"/>
	<path fill="#00A0C6" d="M941.939,909.93h-58.803c-0.048,1.628-0.13,2.827-0.181,4.42c0.401,9.201,0.676,18.022,0.676,26.93
		c0,243.326-169.944,442.733-395.505,458.884c9.863,0.558,19.453,0.838,29.424,0.838c240.016,0,425.285-205.75,425.285-459.722
		C942.854,930.73,942.482,920.347,941.939,909.93z"/>
	<path fill="#008837" d="M882.977,914.35c-7.524,127.35-61.549,240.549-145.348,318.756
		c-66.336,88.67-163.059,149.573-275.208,164.166c8.379,0.887,17.229,2.397,25.739,2.924
		c225.127-16.183,395.486-215.559,395.486-458.933C883.646,932.372,883.378,923.567,882.977,914.35z"/>
	<polygon fill="#00A0C6" points="521.773,60.389 496.391,60.389 593.949,226.025 560.525,226.025 593.949,282.888 653.138,282.888 	
		"/>
	<polygon fill="#008837" points="560.525,225.993 509.543,225.993 543.33,282.888 521.773,282.888 593.949,282.888 	"/>
	<path fill="#F0047F" d="M119.089,597.716c-89.723,84.2-145.961,207.065-145.961,343.546c0,254.053,194.585,459.737,434.614,459.737
		c8.497,0,16.924-0.216,25.304-0.609C205,1386.722,24.125,1186.411,24.125,941.263c0-9.232,0.229-18.878,0.707-28.027
		c-0.478-9.581-0.707-19.177-0.707-28.441C24.125,776.159,59.622,676.233,119.089,597.716z"/>
	<path fill="#FF0000" d="M24.815,913.234c-0.477,9.168-0.69,18.775-0.69,28.044c0,245.101,180.818,445.442,408.938,459.111
		c9.979-0.488,19.905-1.313,29.343-3.151c-104.479-13.671-197.265-66.937-264.996-144.912
		C98.782,1173.596,32.833,1051.621,24.815,913.234z"/>
	<path fill="#F0047F" d="M491.881,644.317c-8.896,0.943-17.367,2.681-25.672,4.815c65.677,16.79,121.768,63.362,158.029,126.83
		l48.723-4.075C632.057,702.482,566.783,654.449,491.881,644.317z"/>
	<path fill="#FF0000" d="M521.323,642.354c-10.063,0-20.003,0.52-29.41,1.981c74.854,10.127,140.144,58.16,181.047,127.552
		l56.125-4.552c-10.899-18.138-23.584-34.683-37.804-49.731l-16.035,1.479c-7.255-12.312-14.723-24.119-23.118-34.938
		C613.771,657.496,569.002,642.354,521.323,642.354z"/>
	<rect x="426.895" y="909.93" fill="#F0047F" width="51.053" height="146.456"/>
	<polygon fill="#FF0000" points="477.931,909.93 477.931,909.93 477.931,1056.386 537.118,1056.386 537.118,999.884 
		477.931,999.884 	"/>
	<path fill="#F0047F" d="M670.893,1056.419h-28.574c-8.442,29.474-20.422,56.305-35.913,79.752
		C632.896,1115.235,654.554,1088.244,670.893,1056.419z"/>
	<path fill="#13007C" d="M462.104,642.354c-8.512,0-16.974,0.39-25.305,1.177c10.082,1.332,19.633,3.214,29.411,5.603
		c8.305-2.135,16.774-3.853,25.672-4.815C482.071,642.873,472.148,642.354,462.104,642.354z"/>
	<path d="M462.104,585.45c-80.876,0-153.439,44.305-199.977,112.906c41.845-35.29,93.328-56.017,148.987-56.017
		c8.895,0,17.323,0.385,25.685,1.175c8.314-0.771,16.793-1.175,25.305-1.175c10.046,0,19.986,0.518,29.777,1.979
		c9.439-1.461,19.363-1.979,29.411-1.979c47.711,0,92.479,15.141,130.869,41.789C605.261,623.726,537.54,585.45,462.104,585.45z
		 M782.917,710.234l-91.589,7.369c14.188,15.081,26.872,31.595,37.791,49.731l77.941-6.852
		C800.186,743.285,792.07,726.526,782.917,710.234z M693.354,999.884h-156.2v56.502h105.185h28.538
		C679.803,1038.971,687.428,1020.108,693.354,999.884z M737.629,1233.105c-73.991,69.332-170.945,110.998-279.234,110.998
		c-97.722,0-188.086-34.011-260.984-91.777c67.699,78.011,160.518,131.275,264.979,144.912
		C574.588,1382.679,671.293,1321.826,737.629,1233.105z"/>
	<path d="M737.629,1233.105c-73.991,69.332-170.945,110.998-279.234,110.998c-97.722,0-188.086-34.011-260.984-91.777
		c67.699,78.011,160.518,131.275,264.979,144.912C574.588,1382.679,671.293,1321.826,737.629,1233.105z"/>
	<path d="M693.333,999.884h-156.18v56.502h105.185h28.538C679.803,1038.971,687.428,1020.108,693.333,999.884z"/>
	<path d="M782.917,710.234l-91.589,7.369c14.188,15.081,26.872,31.595,37.791,49.731l77.941-6.852
		C800.186,743.285,792.07,726.526,782.917,710.234z"/>
	<path d="M462.104,585.45c-80.876,0-153.439,44.305-199.977,112.906c41.845-35.29,93.328-56.017,148.987-56.017
		c8.895,0,17.323,0.385,25.685,1.175c8.331-0.771,16.793-1.175,25.305-1.175c10.046,0,19.986,0.518,29.777,1.979
		c9.439-1.461,19.363-1.979,29.411-1.979c47.711,0,92.479,15.141,130.869,41.789C605.261,623.74,537.54,585.45,462.104,585.45z"/>
	<polygon fill="#F0047F" points="302.158,60.389 196.383,60.389 411.952,282.888 462.586,282.888 246.988,60.389 	"/>
	<polygon fill="#FF0000" points="302.158,60.389 246.988,60.389 462.586,282.888 521.773,282.888 466.661,226.025 462.586,226.025 	
		"/>
	<polygon points="509.509,225.993 466.661,225.993 521.773,282.888 543.314,282.888 	"/>
	<path fill="#FFFF00" d="M458.381,425.089c-137.371,0-259.592,67.478-339.292,172.627
		c76.604-72.053,177.952-115.729,288.688-115.729c8.462,0,16.922,0.222,25.301,0.605c8.379-0.384,16.825-0.605,25.303-0.605
		c10.011,0,19.938,0.287,29.779,0.838c9.849-0.551,19.434-0.838,29.408-0.838c98.053,0,188.434,33.982,260.943,91.808
		C699.355,482.469,585.17,425.089,458.381,425.089z M882.753,853.052h-175.19H477.931v56.878h178.625h175.157h51.444
		c0.334-8.312,0.489-16.689,0.489-25.137C883.646,874.278,883.279,863.468,882.753,853.052z M606.406,1136.171
		c-37.839,30.263-86.349,47.577-144.303,47.577c-47.679,0-92.451-15.048-130.89-41.829c35.915,46.004,83.562,79.06,137.5,92.861
		C528.438,1220.52,574.811,1185.49,606.406,1136.171z"/>
	<path fill="#FFFF00" d="M606.406,1136.171c-37.839,30.263-86.349,47.577-144.303,47.577c-47.679,0-92.451-15.048-130.89-41.829
		c35.915,46.004,83.562,79.06,137.5,92.861C528.438,1220.52,574.811,1185.49,606.406,1136.171z"/>
	<path fill="#FFFF00" d="M882.753,853.052h-175.19H477.931v56.878h178.625h175.157h51.444c0.334-8.312,0.489-16.689,0.489-25.137
		C883.646,874.278,883.279,863.468,882.753,853.052z"/>
	<path fill="#FFFF00" d="M458.381,425.089c-137.371,0-259.592,67.478-339.292,172.627
		c76.604-72.053,177.934-115.729,288.688-115.729c8.462,0,16.906,0.222,25.301,0.605c8.379-0.384,16.825-0.605,25.303-0.605
		c10.011,0,19.938,0.287,29.779,0.838c9.849-0.551,19.434-0.838,29.408-0.838c98.053,0,188.434,33.982,260.943,91.808
		C699.355,482.469,585.17,425.089,458.381,425.089z"/>
	<path fill="#FFFF00" d="M458.381,481.986c-8.478,0-16.924,0.203-25.303,0.622c9.98,0.47,19.922,1.684,29.411,2.728
		c8.362-0.929,17.192-2.038,25.672-2.512C478.302,482.273,468.392,481.986,458.381,481.986z"/>
	<path fill="#008837" d="M517.602,481.986c-10.008,0-19.561,0.287-29.418,0.838c146.111,10.365,272.274,97.146,343.498,223.343
		l26.361-2.134c-19.667-48.371-46.604-92.064-79.545-130.271C705.97,515.969,615.639,481.986,517.602,481.986z"/>
	<path fill="#008837" d="M488.161,482.824c-8.479,0.474-17.295,1.583-25.672,2.512c137.016,18.321,254.043,104.14,320.413,224.932
		l48.779-4.065C760.458,580.004,634.311,493.189,488.161,482.824z"/>
	<path fill="#008837" d="M207.473,913.234c-0.624,9.116-0.929,18.729-0.929,28.044c0,155.852,101.568,283.678,231.431,298.313
		c10.899-1.658,21.17-3.037,30.739-4.845c-53.938-13.771-101.619-46.825-137.5-92.795
		C262.989,1094.403,215.327,1010.479,207.473,913.234z"/>
	<path fill="#008837" d="M262.127,698.355c-64.75,54.111-106.628,143.112-106.628,242.906
		c0,165.496,114.605,299.366,255.581,299.366c9.396,0,18.287-0.345,26.863-1.036c-129.876-14.637-231.398-142.463-231.398-298.33
		c0-9.266,0.289-18.896,0.929-28.027c-0.657-9.55-0.929-19.144-0.929-28.441C206.544,814.047,227.288,749.511,262.127,698.355z"/>
	<path fill="#008837" d="M883.157,909.93h-51.444h51.022c0.107,1.628,0.157,2.827,0.241,4.42
		C883.023,912.757,883.105,911.558,883.157,909.93z"/>
	<path fill="#008837" d="M882.735,909.93h-50.989c0.502,10.417,1.29,20.802,1.29,31.35c0,110.869-35.645,212.699-95.356,291.826
		c83.748-78.19,137.772-191.406,145.297-318.738C882.877,912.757,882.819,911.558,882.735,909.93z"/>
	<path fill="#FF0000" d="M407.742,481.986c-110.733,0-212.049,43.637-288.621,115.729c-59.533,78.518-94.979,178.493-94.979,287.077
		c0,9.282,0.213,18.893,0.69,28.441c13.505-231.768,188.925-417.44,408.263-430.627
		C424.651,482.189,416.221,481.986,407.742,481.986z"/>
	<path fill="#FF0000" d="M433.078,482.608C213.757,495.794,38.32,681.468,24.815,913.234c8.018,138.387,73.95,260.36,172.61,339.06
		c-70.778-81.854-114.104-190.914-114.104-311.016c0-234.158,165.284-427.314,379.167-455.958
		C453,484.292,443.092,483.078,433.078,482.608z"/>
	<path fill="#FF0000" d="M652.16,684.145c8.396,10.819,15.831,22.605,23.119,34.956l16.066-1.479
		C679.164,705.067,665.837,694.003,652.16,684.145z"/>
	<rect x="477.931" y="909.93" fill="#FF0000" width="59.188" height="89.988"/>
	<path fill="#FF0000" d="M693.333,1056.419h-22.458c-16.321,31.825-38.01,58.816-64.488,79.752
		c-31.543,49.386-77.949,84.381-137.688,98.577c8.076,1.575,16.281,2.824,24.529,4.47
		C596.834,1227.157,664.666,1154.896,693.333,1056.419z"/>
	<path fill="#FF0000" d="M752.188,1056.419h-81.295h22.474c-28.699,98.479-96.531,170.738-200.138,182.799
		c9.373,0.95,18.492,1.411,28.096,1.411C642.287,1240.629,720.82,1164.707,752.188,1056.419z"/>
	<path d="M468.698,1234.748c-9.554,1.808-19.823,3.188-30.756,4.845c7.991,0.677,16.052,1.036,24.159,1.036
		c10.629,0,21.029-0.461,31.125-1.411C484.946,1237.572,476.773,1236.323,468.698,1234.748z"/>
	<path d="M462.489,485.303C248.606,513.964,83.322,707.154,83.322,941.278c0,120.102,43.308,229.146,114.104,311.048
		c72.899,57.768,163.296,91.777,260.956,91.777c108.28,0,205.29-41.666,279.265-110.998
		c59.763-79.127,95.391-180.959,95.391-291.844c0-10.548-0.772-20.947-1.323-31.333H707.564H537.137v89.954h156.229
		c-5.921,20.225-13.562,39.119-22.474,56.535h81.294c-31.348,108.305-109.899,184.21-230.862,184.21
		c-9.604,0-18.724-0.492-28.095-1.411c-10.112,0.919-20.455,1.411-31.095,1.411c-8.14,0-16.216-0.345-24.191-1.036
		c-8.611,0.676-17.448,1.036-26.849,1.036c-140.975,0-255.596-133.87-255.596-299.333c0-99.812,41.879-188.777,106.628-242.921
		c46.555-68.604,119.115-112.906,200.007-112.906c75.405,0,143.112,38.271,189.979,98.708c13.678,9.842,27.066,20.906,39.183,33.444
		l91.59-7.37C716.516,589.476,599.487,503.689,462.489,485.303z"/>
	<polygon fill="#FFFF00" points="462.586,3.896 247.028,3.896 302.141,60.389 411.952,60.389 496.391,60.389 	"/>
	<polygon fill="#008837" points="496.391,60.389 411.952,60.389 462.586,60.389 560.525,226.025 593.949,226.025 	"/>
	<polygon fill="#008837" points="462.586,60.389 411.952,60.389 509.509,226.025 560.525,226.025 	"/>
	<polygon fill="#FF0000" points="306.209,60.389 302.158,60.389 462.586,226.025 466.661,226.025 	"/>
	<polygon points="411.952,60.389 306.209,60.389 466.661,226.025 509.509,226.025 	"/>
</g>
<g opacity="0.2">
	<path fill="#FFFF00" d="M2211.111-192.629l-56.124,4.585c0.616,1.069,1.649,2.546,2.284,4.042l56.246-4.997
		C2212.829-190.05,2212.139-191.559,2211.111-192.629z M1944.398,437.306c-9.424,1.773-19.347,2.597-29.358,3.12
		c8.377,0.395,16.856,0.609,25.334,0.609c10.012,0,19.938-0.28,29.761-0.838C1961.645,439.704,1952.794,438.192,1944.398,437.306z"
		/>
	<path fill="#FFFF00" d="M1944.398,437.306c-9.424,1.773-19.347,2.597-29.358,3.12c8.377,0.395,16.856,0.609,25.334,0.609
		c10.012,0,19.938-0.28,29.761-0.838C1961.645,439.704,1952.794,438.192,1944.398,437.306z"/>
	<path fill="#FFFF00" d="M2211.111-192.629l-56.124,4.585c0.616,1.069,1.649,2.546,2.284,4.042l56.246-4.978
		C2212.829-190.05,2212.139-191.559,2211.111-192.629z"/>
	<path fill="#00A0C6" d="M2260.506-386.202c32.959,38.19,59.881,81.935,79.562,130.27l-26.378,2.169
		c9.956,17.252,18.604,35.521,26.378,54.319l-126.581,10.48c1.125,1.643,1.862,3.301,2.973,4.994l182.799-15.475
		C2369.044-273.767,2321.051-337.916,2260.506-386.202z"/>
	<path fill="#008837" d="M2313.675-253.764l-48.78,4.066c9.211,16.273,17.252,33.018,24.127,50.253l-77.909,6.405
		c1.062,1.48,1.732,2.976,2.376,4.06l126.581-10.465C2332.296-218.243,2323.631-236.512,2313.675-253.764z"/>
	<path fill="#00A0C6" d="M1918.759-316.467c-121.28,14.095-217.7,127.274-229.293,269.736
		c7.888,97.245,55.552,181.169,123.741,228.685c-40.598-53.133-65.852-123.322-65.852-200.673
		c0-142.839,86.002-262.844,200.847-292.146C1938.425-313.24,1928.873-315.103,1918.759-316.467z"/>
	<path fill="#008837" d="M1893.088-317.61c-55.654,0-107.152,20.744-148.968,56.001c-34.84,51.155-55.599,115.727-55.599,186.438
		c0,9.316,0.32,18.929,0.902,28.423c11.617-142.411,108.033-255.59,229.318-269.686C1910.416-317.222,1901.6-317.61,1893.088-317.61
		z"/>
	<path fill="#00A0C6" d="M2423.934-50.035h-58.803c-0.048,1.628-0.13,2.827-0.181,4.42c0.402,9.201,0.676,18.022,0.676,26.929
		c0,243.327-169.942,442.734-395.505,458.884c9.863,0.558,19.452,0.838,29.426,0.838c240.015,0,425.283-205.75,425.283-459.722
		C2424.846-29.234,2424.477-39.618,2423.934-50.035z"/>
	<path fill="#008837" d="M2364.97-45.615c-7.524,127.349-61.549,240.548-145.348,318.756
		c-66.336,88.669-163.06,149.573-275.207,164.165c8.379,0.888,17.229,2.398,25.738,2.925
		c225.127-16.183,395.485-215.559,395.485-458.933C2365.64-27.593,2365.372-36.397,2364.97-45.615z"/>
	<polygon fill="#00A0C6" points="2003.768,-899.576 1978.384,-899.576 2075.941,-733.939 2042.52,-733.939 2075.941,-677.077 
		2135.131,-677.077 	"/>
	<polygon fill="#008837" points="2042.52,-733.972 1991.536,-733.972 2025.323,-677.077 2003.768,-677.077 2075.941,-677.077 	"/>
	<path fill="#F0047F" d="M1601.082-362.249c-89.723,84.2-145.961,207.065-145.961,343.546
		c0,254.053,194.585,459.737,434.614,459.737c8.497,0,16.924-0.216,25.305-0.609c-228.047-13.669-408.922-213.979-408.922-459.128
		c0-9.233,0.229-18.878,0.707-28.028c-0.478-9.581-0.707-19.176-0.707-28.441C1506.118-183.806,1541.615-283.732,1601.082-362.249z"
		/>
	<path fill="#FF0000" d="M1506.809-46.73c-0.477,9.168-0.689,18.776-0.689,28.044c0,245.101,180.818,445.443,408.938,459.112
		c9.98-0.488,19.906-1.313,29.344-3.151c-104.479-13.671-197.266-66.937-264.995-144.913
		C1580.775,213.631,1514.827,91.656,1506.809-46.73z"/>
	<path fill="#F0047F" d="M1973.874-315.647c-8.897,0.944-17.367,2.681-25.672,4.816c65.678,16.79,121.768,63.362,158.028,126.83
		l48.724-4.075C2114.05-257.483,2048.775-305.516,1973.874-315.647z"/>
	<path fill="#FF0000" d="M2003.316-317.61c-10.063,0-20.004,0.519-29.409,1.981c74.854,10.127,140.143,58.16,181.047,127.552
		l56.125-4.552c-10.899-18.138-23.585-34.683-37.805-49.731l-16.035,1.478c-7.255-12.313-14.722-24.119-23.117-34.938
		C2095.765-302.469,2050.995-317.61,2003.316-317.61z"/>
	<rect x="1908.888" y="-50.035" fill="#F0047F" width="51.054" height="146.456"/>
	<polygon fill="#FF0000" points="1959.925,-50.035 1959.925,-50.035 1959.925,96.421 2019.111,96.421 2019.111,39.919 
		1959.925,39.919 	"/>
	<path fill="#F0047F" d="M2152.886,96.454h-28.573c-8.442,29.474-20.422,56.305-35.912,79.752
		C2114.89,155.271,2136.547,128.279,2152.886,96.454z"/>
	<path fill="#13007C" d="M1944.096-317.61c-8.511,0-16.974,0.389-25.304,1.176c10.081,1.332,19.633,3.214,29.41,5.603
		c8.305-2.135,16.774-3.853,25.672-4.816C1964.064-317.092,1954.143-317.61,1944.096-317.61z"/>
	<path d="M1944.096-374.515c-80.876,0-153.438,44.305-199.976,112.906c41.846-35.29,93.328-56.016,148.985-56.016
		c8.896,0,17.323,0.385,25.687,1.175c8.313-0.771,16.793-1.175,25.304-1.175c10.047,0,19.987,0.517,29.778,1.978
		c9.438-1.461,19.362-1.978,29.41-1.978c47.711,0,92.479,15.14,130.868,41.789C2087.255-336.239,2019.532-374.515,1944.096-374.515z
		 M2264.91-249.73l-91.59,7.37c14.188,15.081,26.871,31.594,37.791,49.731l77.941-6.852
		C2282.178-216.68,2274.062-233.438,2264.91-249.73z M2175.346,39.919h-156.199v56.502h105.186h28.537
		C2161.796,79.006,2169.421,60.144,2175.346,39.919z M2219.622,273.141c-73.991,69.332-170.945,110.998-279.233,110.998
		c-97.722,0-188.087-34.01-260.984-91.777c67.699,78.011,160.518,131.275,264.979,144.913
		C2056.581,422.714,2153.286,361.861,2219.622,273.141z"/>
	<path d="M2219.622,273.141c-73.991,69.332-170.945,110.998-279.233,110.998c-97.722,0-188.087-34.01-260.984-91.777
		c67.699,78.011,160.518,131.275,264.979,144.913C2056.581,422.714,2153.286,361.861,2219.622,273.141z"/>
	<path d="M2175.327,39.919h-156.183v56.502h105.187h28.537C2161.796,79.006,2169.421,60.144,2175.327,39.919z"/>
	<path d="M2264.91-249.73l-91.59,7.37c14.188,15.081,26.871,31.594,37.791,49.731l77.941-6.852
		C2282.178-216.68,2274.062-233.438,2264.91-249.73z"/>
	<path d="M1944.096-374.515c-80.876,0-153.438,44.305-199.976,112.906c41.846-35.29,93.328-56.016,148.985-56.016
		c8.896,0,17.323,0.385,25.687,1.175c8.33-0.771,16.793-1.175,25.304-1.175c10.047,0,19.987,0.517,29.778,1.978
		c9.438-1.461,19.362-1.978,29.41-1.978c47.711,0,92.479,15.14,130.868,41.789C2087.255-336.225,2019.532-374.515,1944.096-374.515z
		"/>
	<polygon fill="#F0047F" points="1784.15,-899.576 1678.376,-899.576 1893.945,-677.077 1944.579,-677.077 1728.98,-899.576 	"/>
	<polygon fill="#FF0000" points="1784.15,-899.576 1728.98,-899.576 1944.579,-677.077 2003.768,-677.077 1948.654,-733.939 
		1944.579,-733.939 	"/>
	<polygon points="1991.503,-733.972 1948.654,-733.972 2003.768,-677.077 2025.309,-677.077 	"/>
	<path fill="#FFFF00" d="M1940.374-534.876c-137.37,0-259.592,67.477-339.292,172.627c76.604-72.053,177.952-115.73,288.688-115.73
		c8.463,0,16.922,0.222,25.302,0.606c8.379-0.384,16.825-0.606,25.303-0.606c10.012,0,19.938,0.287,29.779,0.838
		c9.85-0.551,19.434-0.838,29.407-0.838c98.054,0,188.435,33.983,260.944,91.808C2181.35-477.496,2067.163-534.876,1940.374-534.876
		z M2364.747-106.913h-175.19h-229.631v56.878h178.625h175.155h51.443c0.335-8.313,0.49-16.69,0.49-25.137
		C2365.64-85.687,2365.271-96.497,2364.747-106.913z M2088.398,176.206c-37.84,30.263-86.349,47.577-144.304,47.577
		c-47.679,0-92.45-15.048-130.889-41.829c35.915,46.004,83.562,79.059,137.501,92.861
		C2010.43,260.554,2056.804,225.525,2088.398,176.206z"/>
	<path fill="#FFFF00" d="M2088.398,176.206c-37.84,30.263-86.349,47.577-144.304,47.577c-47.679,0-92.45-15.048-130.889-41.829
		c35.915,46.004,83.562,79.059,137.501,92.861C2010.43,260.554,2056.804,225.525,2088.398,176.206z"/>
	<path fill="#FFFF00" d="M2364.747-106.913h-175.19h-229.631v56.878h178.625h175.155h51.443c0.335-8.313,0.49-16.69,0.49-25.137
		C2365.64-85.687,2365.271-96.497,2364.747-106.913z"/>
	<path fill="#FFFF00" d="M1940.374-534.876c-137.37,0-259.592,67.477-339.292,172.627c76.604-72.053,177.934-115.73,288.688-115.73
		c8.463,0,16.905,0.222,25.302,0.606c8.379-0.384,16.825-0.606,25.303-0.606c10.012,0,19.938,0.287,29.779,0.838
		c9.85-0.551,19.434-0.838,29.407-0.838c98.054,0,188.435,33.983,260.944,91.808C2181.35-477.496,2067.163-534.876,1940.374-534.876
		z"/>
	<path fill="#FFFF00" d="M1940.374-477.979c-8.478,0-16.924,0.203-25.303,0.622c9.98,0.47,19.922,1.684,29.409,2.728
		c8.363-0.929,17.193-2.038,25.673-2.512C1960.295-477.691,1950.386-477.979,1940.374-477.979z"/>
	<path fill="#008837" d="M1999.595-477.979c-10.008,0-19.561,0.287-29.418,0.838c146.111,10.365,272.274,97.147,343.498,223.343
		l26.361-2.135c-19.668-48.37-46.604-92.063-79.546-130.27C2187.963-443.996,2097.632-477.979,1999.595-477.979z"/>
	<path fill="#008837" d="M1970.152-477.141c-8.479,0.474-17.295,1.583-25.672,2.512c137.018,18.321,254.043,104.14,320.414,224.932
		l48.779-4.065C2242.451-379.96,2116.304-466.776,1970.152-477.141z"/>
	<path fill="#008837" d="M1689.466-46.73c-0.623,9.117-0.928,18.73-0.928,28.044c0,155.852,101.567,283.678,231.431,298.314
		c10.899-1.658,21.17-3.037,30.739-4.845c-53.938-13.771-101.619-46.825-137.501-92.795
		C1744.982,134.438,1697.318,50.515,1689.466-46.73z"/>
	<path fill="#008837" d="M1744.12-261.609c-64.75,54.112-106.629,143.113-106.629,242.907
		c0,165.496,114.604,299.366,255.581,299.366c9.396,0,18.287-0.345,26.863-1.036c-129.877-14.637-231.397-142.463-231.397-298.33
		c0-9.266,0.288-18.896,0.928-28.028c-0.655-9.549-0.928-19.143-0.928-28.441C1688.538-145.918,1709.28-210.454,1744.12-261.609z"/>
	<path fill="#008837" d="M2365.148-50.035h-51.442h51.021c0.108,1.628,0.157,2.827,0.241,4.42
		C2365.018-47.208,2365.1-48.407,2365.148-50.035z"/>
	<path fill="#008837" d="M2364.729-50.035h-50.988c0.502,10.417,1.29,20.801,1.29,31.349c0,110.869-35.645,212.7-95.356,291.827
		c83.748-78.191,137.771-191.407,145.297-318.739C2364.87-47.208,2364.812-48.407,2364.729-50.035z"/>
	<path fill="#FF0000" d="M1889.734-477.979c-110.732,0-212.049,43.637-288.62,115.73c-59.532,78.517-94.979,178.493-94.979,287.077
		c0,9.282,0.213,18.893,0.689,28.441c13.506-231.767,188.926-417.44,408.264-430.626
		C1906.645-477.775,1898.214-477.979,1889.734-477.979z"/>
	<path fill="#FF0000" d="M1915.071-477.356c-219.32,13.186-394.759,198.859-408.263,430.626
		c8.019,138.387,73.949,260.361,172.609,339.06c-70.777-81.854-114.104-190.914-114.104-311.016
		c0-234.158,165.283-427.314,379.166-455.958C1934.993-475.673,1925.085-476.887,1915.071-477.356z"/>
	<path fill="#FF0000" d="M2134.153-275.82c8.396,10.819,15.831,22.605,23.118,34.956l16.067-1.479
		C2161.157-254.897,2147.831-265.962,2134.153-275.82z"/>
	<rect x="1959.925" y="-50.035" fill="#FF0000" width="59.188" height="89.988"/>
	<path fill="#FF0000" d="M2175.327,96.454h-22.459c-16.321,31.825-38.011,58.816-64.488,79.752
		c-31.543,49.386-77.95,84.381-137.688,98.577c8.076,1.575,16.28,2.824,24.53,4.47
		C2078.827,267.192,2146.659,194.933,2175.327,96.454z"/>
	<path fill="#FF0000" d="M2234.18,96.454h-81.294h22.474c-28.699,98.479-96.531,170.738-200.138,182.799
		c9.371,0.95,18.491,1.411,28.095,1.411C2124.28,280.664,2202.812,204.742,2234.18,96.454z"/>
	<path d="M1950.691,274.783c-9.553,1.808-19.823,3.187-30.756,4.845c7.99,0.676,16.052,1.036,24.16,1.036
		c10.627,0,21.027-0.461,31.125-1.411C1966.939,277.607,1958.768,276.358,1950.691,274.783z"/>
	<path d="M1944.48-474.662C1730.6-446,1565.314-252.811,1565.314-18.687c0,120.102,43.309,229.146,114.104,311.048
		c72.899,57.768,163.296,91.777,260.955,91.777c108.28,0,205.291-41.666,279.264-110.998
		c59.765-79.127,95.393-180.958,95.393-291.843c0-10.548-0.772-20.948-1.323-31.333h-124.15H2019.13v89.954h156.229
		c-5.923,20.225-13.562,39.119-22.474,56.535h81.294c-31.348,108.305-109.898,184.21-230.863,184.21
		c-9.604,0-18.724-0.492-28.095-1.411c-10.112,0.919-20.454,1.411-31.094,1.411c-8.142,0-16.217-0.345-24.192-1.036
		c-8.609,0.676-17.447,1.036-26.848,1.036c-140.975,0-255.598-133.87-255.598-299.333c0-99.812,41.88-188.777,106.63-242.921
		c46.555-68.604,119.114-112.906,200.008-112.906c75.404,0,143.111,38.271,189.979,98.708c13.678,9.842,27.065,20.906,39.183,33.444
		l91.59-7.37C2198.509-370.489,2081.479-456.276,1944.48-474.662z"/>
	<polygon fill="#FFFF00" points="1944.579,-956.069 1729.021,-956.069 1784.134,-899.576 1893.945,-899.576 1978.384,-899.576 	"/>
	<polygon fill="#008837" points="1978.384,-899.576 1893.945,-899.576 1944.579,-899.576 2042.52,-733.939 2075.941,-733.939 	"/>
	<polygon fill="#008837" points="1944.579,-899.576 1893.945,-899.576 1991.503,-733.939 2042.52,-733.939 	"/>
	<polygon fill="#FF0000" points="1788.202,-899.576 1784.15,-899.576 1944.579,-733.939 1948.654,-733.939 	"/>
	<polygon points="1893.945,-899.576 1788.202,-899.576 1948.654,-733.939 1991.503,-733.939 	"/>
</g>
<polyline fill="none" stroke="#999999" stroke-width="2" stroke-miterlimit="10" points="621,145 621,70 633,70 "/>
<polyline fill="none" stroke="#999999" stroke-width="2" stroke-miterlimit="10" points="1378,139 1378,64 1366,64 "/>
</svg>
