<?xml version="1.0" encoding="utf-8"?>
<!-- Generator: Adobe Illustrator 16.0.0, SVG Export Plug-In . SVG Version: 6.00 Build 0)  -->
<!DOCTYPE svg PUBLIC "-//W3C//DTD SVG 1.1//EN" "http://www.w3.org/Graphics/SVG/1.1/DTD/svg11.dtd">
<svg version="1.1" xmlns="http://www.w3.org/2000/svg" xmlns:xlink="http://www.w3.org/1999/xlink" x="0px" y="0px" width="2000px"
	 height="1400px" viewBox="0 0 2000 1400" enable-background="new 0 0 2000 1400" xml:space="preserve">
<g id="Capa_1" display="none">
	<g id="eKn5B0_1_" display="inline">
		
			<image overflow="visible" width="2000" height="1407" id="eKn5B0" xlink:href="C65C6A2DB3211EBD.png"  transform="matrix(1.0003 0 0 1.0003 -0.2778 -3.6953)">
		</image>
	</g>
</g>
<g id="Capa_2">
	<g opacity="0.2">
		<path fill="#FFFF00" d="M479.118,759.745l-56.124,4.585c0.616,1.069,1.651,2.546,2.285,4.042l56.246-4.997
			C480.836,762.324,480.146,760.815,479.118,759.745z M212.406,1389.68c-9.423,1.773-19.346,2.596-29.359,3.12
			c8.378,0.394,16.857,0.609,25.335,0.609c10.011,0,19.938-0.28,29.76-0.838C229.65,1392.078,220.8,1390.566,212.406,1389.68z"/>
		<path fill="#FFFF00" d="M212.406,1389.68c-9.423,1.773-19.346,2.596-29.359,3.12c8.378,0.394,16.857,0.609,25.335,0.609
			c10.011,0,19.938-0.28,29.76-0.838C229.65,1392.078,220.8,1390.566,212.406,1389.68z"/>
		<path fill="#FFFF00" d="M479.118,759.745l-56.124,4.585c0.616,1.069,1.651,2.546,2.285,4.042l56.246-4.978
			C480.836,762.324,480.146,760.815,479.118,759.745z"/>
		<path fill="#00A0C6" d="M528.513,566.172c32.959,38.19,59.881,81.935,79.562,130.27l-26.378,2.168
			c9.956,17.252,18.605,35.521,26.378,54.319l-126.582,10.48c1.125,1.643,1.863,3.301,2.973,4.994l182.799-15.475
			C637.051,678.607,589.058,614.458,528.513,566.172z"/>
		<path fill="#008837" d="M581.682,698.61l-48.78,4.066c9.211,16.273,17.251,33.018,24.127,50.253l-77.91,6.405
			c1.061,1.48,1.733,2.976,2.375,4.06l126.582-10.465C600.302,734.131,591.638,715.862,581.682,698.61z"/>
		<path fill="#00A0C6" d="M186.766,635.907C65.484,650.002-30.936,763.182-42.527,905.644
			c7.887,97.245,55.55,181.169,123.741,228.685c-40.597-53.133-65.851-123.322-65.851-200.673
			c0-142.839,86.002-262.844,200.846-292.146C206.432,639.134,196.88,637.271,186.766,635.907z"/>
		<path fill="#008837" d="M161.095,634.764c-55.654,0-107.154,20.744-148.968,56.001c-34.839,51.155-55.599,115.727-55.599,186.438
			c0,9.316,0.321,18.929,0.904,28.423c11.616-142.411,108.033-255.59,229.317-269.686
			C178.423,635.152,169.606,634.764,161.095,634.764z"/>
		<path fill="#00A0C6" d="M691.94,902.339h-58.803c-0.048,1.628-0.13,2.827-0.181,4.42c0.402,9.201,0.676,18.022,0.676,26.929
			c0,243.327-169.944,442.734-395.505,458.884c9.863,0.558,19.453,0.838,29.424,0.838c240.015,0,425.285-205.75,425.285-459.722
			C692.853,923.14,692.482,912.756,691.94,902.339z"/>
		<path fill="#008837" d="M632.977,906.759c-7.525,127.349-61.549,240.548-145.348,318.756
			c-66.336,88.669-163.059,149.573-275.208,164.165c8.379,0.887,17.229,2.398,25.739,2.924
			c225.127-16.182,395.486-215.558,395.486-458.932C633.646,924.781,633.378,915.977,632.977,906.759z"/>
		<polygon fill="#00A0C6" points="271.773,52.798 246.391,52.798 343.949,218.435 310.525,218.435 343.949,275.297 403.138,275.297 
					"/>
		<polygon fill="#008837" points="310.525,218.402 259.543,218.402 293.33,275.297 271.773,275.297 343.949,275.297 		"/>
		<path fill="#F0047F" d="M-130.911,590.125c-89.723,84.2-145.961,207.065-145.961,343.546
			c0,254.053,194.585,459.737,434.614,459.737c8.497,0,16.924-0.216,25.304-0.609C-45,1379.131-225.875,1178.82-225.875,933.672
			c0-9.233,0.229-18.878,0.707-28.028c-0.478-9.581-0.707-19.176-0.707-28.441C-225.875,768.568-190.378,668.642-130.911,590.125z"
			/>
		<path fill="#FF0000" d="M-225.185,905.644c-0.477,9.168-0.69,18.776-0.69,28.044c0,245.101,180.818,445.443,408.937,459.112
			c9.98-0.489,19.906-1.314,29.343-3.152c-104.479-13.671-197.265-66.936-264.996-144.912
			C-151.218,1166.005-217.167,1044.03-225.185,905.644z"/>
		<path fill="#F0047F" d="M241.881,636.727c-8.897,0.944-17.367,2.681-25.672,4.816c65.677,16.79,121.768,63.362,158.029,126.83
			l48.723-4.075C382.057,694.891,316.783,646.858,241.881,636.727z"/>
		<path fill="#FF0000" d="M271.323,634.764c-10.063,0-20.003,0.519-29.41,1.981c74.854,10.127,140.144,58.16,181.047,127.552
			l56.125-4.552c-10.899-18.138-23.584-34.683-37.804-49.731l-16.035,1.478c-7.255-12.313-14.722-24.119-23.118-34.938
			C363.771,649.905,319.002,634.764,271.323,634.764z"/>
		<rect x="176.894" y="902.339" fill="#F0047F" width="51.053" height="146.456"/>
		<polygon fill="#FF0000" points="227.931,902.339 227.931,902.339 227.931,1048.795 287.118,1048.795 287.118,992.293 
			227.931,992.293 		"/>
		<path fill="#F0047F" d="M420.892,1048.828h-28.574c-8.442,29.474-20.421,56.305-35.913,79.752
			C382.896,1107.645,404.554,1080.653,420.892,1048.828z"/>
		<path fill="#13007C" d="M212.103,634.764c-8.511,0-16.973,0.389-25.304,1.176c10.082,1.332,19.633,3.214,29.411,5.603
			c8.305-2.135,16.774-3.853,25.672-4.816C232.071,635.282,222.148,634.764,212.103,634.764z"/>
		<path d="M212.103,577.859c-80.876,0-153.439,44.305-199.976,112.906c41.845-35.29,93.328-56.016,148.987-56.016
			c8.895,0,17.323,0.385,25.685,1.175c8.314-0.771,16.793-1.175,25.304-1.175c10.046,0,19.987,0.517,29.778,1.978
			c9.439-1.461,19.363-1.978,29.411-1.978c47.711,0,92.479,15.14,130.869,41.789C355.261,616.135,287.54,577.859,212.103,577.859z
			 M532.917,702.644l-91.589,7.37c14.188,15.081,26.872,31.594,37.791,49.731l77.942-6.852
			C550.185,735.694,542.07,718.936,532.917,702.644z M443.353,992.293h-156.2v56.502h105.185h28.538
			C429.803,1031.38,437.428,1012.518,443.353,992.293z M487.629,1225.515c-73.991,69.332-170.945,110.998-279.234,110.998
			c-97.722,0-188.087-34.01-260.985-91.777c67.699,78.011,160.518,131.275,264.979,144.912
			C324.588,1375.088,421.293,1314.235,487.629,1225.515z"/>
		<path d="M487.629,1225.515c-73.991,69.332-170.945,110.998-279.234,110.998c-97.722,0-188.087-34.01-260.985-91.777
			c67.699,78.011,160.518,131.275,264.979,144.912C324.588,1375.088,421.293,1314.235,487.629,1225.515z"/>
		<path d="M443.333,992.293H287.153v56.502h105.185h28.538C429.803,1031.38,437.428,1012.518,443.333,992.293z"/>
		<path d="M532.917,702.644l-91.589,7.37c14.188,15.081,26.872,31.594,37.791,49.731l77.942-6.852
			C550.185,735.694,542.07,718.936,532.917,702.644z"/>
		<path d="M212.103,577.859c-80.876,0-153.439,44.305-199.976,112.906c41.845-35.29,93.328-56.016,148.987-56.016
			c8.895,0,17.323,0.385,25.685,1.175c8.331-0.771,16.793-1.175,25.304-1.175c10.046,0,19.987,0.517,29.778,1.978
			c9.439-1.461,19.363-1.978,29.411-1.978c47.711,0,92.479,15.14,130.869,41.789C355.261,616.149,287.54,577.859,212.103,577.859z"
			/>
		<polygon fill="#F0047F" points="52.158,52.798 -53.617,52.798 161.952,275.297 212.586,275.297 -3.012,52.798 		"/>
		<polygon fill="#FF0000" points="52.158,52.798 -3.012,52.798 212.586,275.297 271.773,275.297 216.661,218.435 212.586,218.435 		
			"/>
		<polygon points="259.509,218.402 216.661,218.402 271.773,275.297 293.314,275.297 		"/>
		<path fill="#FFFF00" d="M208.381,417.498c-137.371,0-259.592,67.477-339.292,172.627c76.604-72.053,177.952-115.73,288.688-115.73
			c8.462,0,16.922,0.222,25.301,0.606c8.379-0.384,16.825-0.606,25.303-0.606c10.011,0,19.938,0.287,29.779,0.838
			c9.849-0.551,19.434-0.838,29.408-0.838c98.053,0,188.434,33.983,260.944,91.808C449.355,474.878,335.17,417.498,208.381,417.498z
			 M632.753,845.461H457.562H227.931v56.878h178.625h175.157h51.444c0.334-8.313,0.49-16.69,0.49-25.137
			C633.646,866.688,633.279,855.877,632.753,845.461z M356.406,1128.58c-37.839,30.263-86.348,47.577-144.303,47.577
			c-47.678,0-92.45-15.048-130.889-41.829c35.915,46.004,83.562,79.059,137.5,92.861
			C278.437,1212.928,324.811,1177.899,356.406,1128.58z"/>
		<path fill="#FFFF00" d="M356.406,1128.58c-37.839,30.263-86.348,47.577-144.303,47.577c-47.678,0-92.45-15.048-130.889-41.829
			c35.915,46.004,83.562,79.059,137.5,92.861C278.437,1212.928,324.811,1177.899,356.406,1128.58z"/>
		<path fill="#FFFF00" d="M632.753,845.461H457.562H227.931v56.878h178.625h175.157h51.444c0.334-8.313,0.49-16.69,0.49-25.137
			C633.646,866.688,633.279,855.877,632.753,845.461z"/>
		<path fill="#FFFF00" d="M208.381,417.498c-137.371,0-259.592,67.477-339.292,172.627c76.604-72.053,177.934-115.73,288.688-115.73
			c8.462,0,16.906,0.222,25.301,0.606c8.379-0.384,16.825-0.606,25.303-0.606c10.011,0,19.938,0.287,29.779,0.838
			c9.849-0.551,19.434-0.838,29.408-0.838c98.053,0,188.434,33.983,260.944,91.808C449.355,474.878,335.17,417.498,208.381,417.498z
			"/>
		<path fill="#FFFF00" d="M208.381,474.396c-8.478,0-16.924,0.203-25.303,0.622c9.981,0.47,19.922,1.684,29.411,2.728
			c8.362-0.929,17.193-2.038,25.672-2.512C228.302,474.683,218.392,474.396,208.381,474.396z"/>
		<path fill="#008837" d="M267.601,474.396c-10.007,0-19.56,0.287-29.417,0.838c146.111,10.365,272.274,97.147,343.498,223.343
			l26.361-2.135c-19.667-48.37-46.604-92.064-79.545-130.27C455.97,508.378,365.639,474.396,267.601,474.396z"/>
		<path fill="#008837" d="M238.161,475.233c-8.479,0.474-17.295,1.583-25.672,2.512c137.016,18.321,254.043,104.14,320.413,224.932
			l48.78-4.066C510.458,572.414,384.31,485.598,238.161,475.233z"/>
		<path fill="#008837" d="M-42.527,905.644c-0.624,9.117-0.929,18.73-0.929,28.044c0,155.852,101.568,283.678,231.431,298.314
			c10.899-1.658,21.17-3.037,30.739-4.845c-53.938-13.771-101.619-46.825-137.5-92.795
			C12.989,1086.812-34.673,1002.889-42.527,905.644z"/>
		<path fill="#008837" d="M12.127,690.765c-64.75,54.112-106.628,143.113-106.628,242.907
			c0,165.496,114.605,299.366,255.581,299.366c9.396,0,18.287-0.345,26.863-1.036c-129.876-14.637-231.398-142.463-231.398-298.33
			c0-9.266,0.289-18.896,0.929-28.028c-0.657-9.549-0.929-19.143-0.929-28.441C-43.456,806.456-22.712,741.92,12.127,690.765z"/>
		<path fill="#008837" d="M633.157,902.339h-51.444h51.022c0.108,1.628,0.158,2.827,0.241,4.42
			C633.024,905.166,633.105,903.967,633.157,902.339z"/>
		<path fill="#008837" d="M632.735,902.339h-50.989c0.502,10.417,1.29,20.801,1.29,31.349c0,110.869-35.644,212.7-95.356,291.827
			c83.748-78.191,137.772-191.407,145.297-318.739C632.877,905.166,632.819,903.967,632.735,902.339z"/>
		<path fill="#FF0000" d="M157.742,474.396c-110.733,0-212.049,43.637-288.621,115.73c-59.533,78.517-94.979,178.493-94.979,287.077
			c0,9.282,0.213,18.893,0.69,28.441c13.505-231.767,188.925-417.44,408.263-430.626
			C174.651,474.599,166.221,474.396,157.742,474.396z"/>
		<path fill="#FF0000" d="M183.078,475.018C-36.243,488.204-211.68,673.877-225.185,905.644
			c8.018,138.387,73.95,260.361,172.61,339.06c-70.778-81.854-114.104-190.914-114.104-311.016
			c0-234.158,165.284-427.314,379.167-455.958C203,476.701,193.092,475.487,183.078,475.018z"/>
		<path fill="#FF0000" d="M402.16,676.554c8.396,10.819,15.831,22.605,23.119,34.956l16.067-1.479
			C429.164,697.477,415.837,686.412,402.16,676.554z"/>
		<rect x="227.931" y="902.339" fill="#FF0000" width="59.187" height="89.988"/>
		<path fill="#FF0000" d="M443.333,1048.828h-22.458c-16.321,31.825-38.01,58.816-64.488,79.752
			c-31.543,49.386-77.95,84.381-137.688,98.577c8.076,1.575,16.281,2.824,24.53,4.47
			C346.834,1219.566,414.666,1147.307,443.333,1048.828z"/>
		<path fill="#FF0000" d="M502.187,1048.828h-81.294h22.473c-28.699,98.479-96.531,170.738-200.137,182.799
			c9.372,0.95,18.492,1.411,28.095,1.411C392.287,1233.038,470.82,1157.116,502.187,1048.828z"/>
		<path d="M218.698,1227.157c-9.553,1.808-19.823,3.187-30.756,4.845c7.992,0.676,16.052,1.036,24.16,1.036
			c10.628,0,21.029-0.461,31.125-1.411C234.946,1229.981,226.774,1228.732,218.698,1227.157z"/>
		<path d="M212.489,477.712C-1.394,506.374-166.678,699.563-166.678,933.688c0,120.102,43.308,229.146,114.104,311.048
			c72.899,57.768,163.296,91.777,260.956,91.777c108.28,0,205.29-41.666,279.264-110.998
			c59.763-79.127,95.391-180.958,95.391-291.843c0-10.548-0.772-20.948-1.323-31.333h-124.15H287.137v89.954h156.228
			c-5.921,20.225-13.562,39.119-22.473,56.535h81.294c-31.348,108.305-109.9,184.21-230.863,184.21
			c-9.604,0-18.723-0.492-28.095-1.411c-10.112,0.919-20.455,1.411-31.094,1.411c-8.14,0-16.216-0.345-24.192-1.036
			c-8.611,0.676-17.448,1.036-26.848,1.036c-140.975,0-255.596-133.87-255.596-299.333c0-99.812,41.879-188.777,106.628-242.921
			c46.555-68.604,119.115-112.906,200.007-112.906c75.405,0,143.112,38.271,189.979,98.708
			c13.678,9.842,27.067,20.906,39.183,33.444l91.59-7.37C466.516,581.885,349.487,496.098,212.489,477.712z"/>
		<polygon fill="#FFFF00" points="212.586,-3.695 -2.972,-3.695 52.141,52.798 161.952,52.798 246.391,52.798 		"/>
		<polygon fill="#008837" points="246.391,52.798 161.952,52.798 212.586,52.798 310.525,218.435 343.949,218.435 		"/>
		<polygon fill="#008837" points="212.586,52.798 161.952,52.798 259.509,218.435 310.525,218.435 		"/>
		<polygon fill="#FF0000" points="56.209,52.798 52.158,52.798 212.586,218.435 216.661,218.435 		"/>
		<polygon points="161.952,52.798 56.209,52.798 216.661,218.435 259.509,218.435 		"/>
	</g>
	<g opacity="0.2">
		<path fill="#FFFF00" d="M2386.111-192.629l-56.124,4.585c0.616,1.069,1.65,2.546,2.285,4.042l56.246-4.997
			C2387.829-190.05,2387.139-191.559,2386.111-192.629z M2119.399,437.306c-9.424,1.773-19.347,2.596-29.359,3.12
			c8.377,0.394,16.856,0.609,25.334,0.609c10.012,0,19.938-0.28,29.761-0.838C2136.644,439.704,2127.794,438.192,2119.399,437.306z"
			/>
		<path fill="#FFFF00" d="M2119.399,437.306c-9.424,1.773-19.347,2.596-29.359,3.12c8.377,0.394,16.856,0.609,25.334,0.609
			c10.012,0,19.938-0.28,29.761-0.838C2136.644,439.704,2127.794,438.192,2119.399,437.306z"/>
		<path fill="#FFFF00" d="M2386.111-192.629l-56.124,4.585c0.616,1.069,1.65,2.546,2.285,4.042l56.246-4.978
			C2387.829-190.05,2387.139-191.559,2386.111-192.629z"/>
		<path fill="#00A0C6" d="M2435.506-386.202c32.959,38.19,59.881,81.935,79.562,130.27l-26.378,2.169
			c9.956,17.252,18.605,35.521,26.378,54.319l-126.581,10.48c1.125,1.643,1.863,3.301,2.973,4.994l182.799-15.475
			C2544.044-273.767,2496.051-337.916,2435.506-386.202z"/>
		<path fill="#008837" d="M2488.675-253.764l-48.78,4.066c9.211,16.273,17.251,33.018,24.127,50.253l-77.91,6.405
			c1.062,1.48,1.733,2.976,2.376,4.06l126.581-10.465C2507.296-218.243,2498.631-236.512,2488.675-253.764z"/>
		<path fill="#00A0C6" d="M2093.759-316.467c-121.281,14.095-217.701,127.274-229.293,269.736
			c7.887,97.245,55.551,181.169,123.741,228.685c-40.597-53.133-65.851-123.322-65.851-200.673
			c0-142.839,86.002-262.844,200.846-292.146C2113.425-313.24,2103.873-315.103,2093.759-316.467z"/>
		<path fill="#008837" d="M2068.088-317.61c-55.654,0-107.153,20.744-148.968,56.001c-34.84,51.155-55.599,115.727-55.599,186.438
			c0,9.316,0.321,18.929,0.903,28.423c11.617-142.411,108.033-255.59,229.318-269.686
			C2085.416-317.222,2076.599-317.61,2068.088-317.61z"/>
		<path fill="#00A0C6" d="M2598.934-50.035h-58.803c-0.048,1.628-0.13,2.827-0.181,4.42c0.402,9.201,0.676,18.022,0.676,26.929
			c0,243.327-169.943,442.734-395.505,458.884c9.863,0.558,19.452,0.838,29.425,0.838c240.015,0,425.284-205.75,425.284-459.722
			C2599.846-29.234,2599.476-39.618,2598.934-50.035z"/>
		<path fill="#008837" d="M2539.97-45.615c-7.525,127.349-61.549,240.548-145.348,318.756
			c-66.336,88.669-163.059,149.573-275.207,164.165c8.379,0.887,17.229,2.398,25.738,2.924
			c225.127-16.182,395.486-215.558,395.486-458.932C2540.64-27.593,2540.372-36.397,2539.97-45.615z"/>
		<polygon fill="#00A0C6" points="2178.767,-899.576 2153.384,-899.576 2250.942,-733.939 2217.519,-733.939 2250.942,-677.077 
			2310.131,-677.077 		"/>
		<polygon fill="#008837" points="2217.519,-733.972 2166.536,-733.972 2200.323,-677.077 2178.767,-677.077 2250.942,-677.077 		
			"/>
		<path fill="#F0047F" d="M1776.082-362.249c-89.723,84.2-145.961,207.065-145.961,343.546
			c0,254.053,194.585,459.737,434.614,459.737c8.497,0,16.924-0.216,25.305-0.609c-228.047-13.669-408.922-213.979-408.922-459.128
			c0-9.233,0.23-18.878,0.707-28.028c-0.477-9.581-0.707-19.176-0.707-28.441C1681.118-183.806,1716.615-283.732,1776.082-362.249z"
			/>
		<path fill="#FF0000" d="M1681.809-46.73c-0.477,9.168-0.69,18.776-0.69,28.044c0,245.101,180.818,445.443,408.938,459.112
			c9.98-0.489,19.906-1.314,29.344-3.152c-104.479-13.671-197.266-66.936-264.996-144.912
			C1755.775,213.631,1689.827,91.656,1681.809-46.73z"/>
		<path fill="#F0047F" d="M2148.874-315.647c-8.897,0.944-17.367,2.681-25.672,4.816c65.678,16.79,121.768,63.362,158.029,126.83
			l48.723-4.075C2289.05-257.483,2223.776-305.516,2148.874-315.647z"/>
		<path fill="#FF0000" d="M2178.316-317.61c-10.063,0-20.003,0.519-29.409,1.981c74.854,10.127,140.143,58.16,181.047,127.552
			l56.125-4.552c-10.9-18.138-23.585-34.683-37.805-49.731l-16.035,1.478c-7.255-12.313-14.722-24.119-23.117-34.938
			C2270.765-302.469,2225.995-317.61,2178.316-317.61z"/>
		<rect x="2083.888" y="-50.035" fill="#F0047F" width="51.053" height="146.456"/>
		<polygon fill="#FF0000" points="2134.925,-50.035 2134.925,-50.035 2134.925,96.421 2194.111,96.421 2194.111,39.919 
			2134.925,39.919 		"/>
		<path fill="#F0047F" d="M2327.886,96.454h-28.574c-8.442,29.474-20.421,56.305-35.912,79.752
			C2289.89,155.271,2311.547,128.279,2327.886,96.454z"/>
		<path fill="#13007C" d="M2119.096-317.61c-8.511,0-16.974,0.389-25.304,1.176c10.081,1.332,19.633,3.214,29.41,5.603
			c8.305-2.135,16.774-3.853,25.672-4.816C2139.064-317.092,2129.142-317.61,2119.096-317.61z"/>
		<path d="M2119.096-374.515c-80.876,0-153.439,44.305-199.976,112.906c41.846-35.29,93.328-56.016,148.986-56.016
			c8.896,0,17.323,0.385,25.686,1.175c8.314-0.771,16.793-1.175,25.304-1.175c10.046,0,19.987,0.517,29.778,1.978
			c9.439-1.461,19.363-1.978,29.41-1.978c47.711,0,92.48,15.14,130.869,41.789C2262.255-336.239,2194.532-374.515,2119.096-374.515z
			 M2439.91-249.73l-91.589,7.37c14.188,15.081,26.871,31.594,37.79,49.731l77.942-6.852
			C2457.178-216.68,2449.063-233.438,2439.91-249.73z M2350.346,39.919h-156.2v56.502h105.186h28.537
			C2336.796,79.006,2344.421,60.144,2350.346,39.919z M2394.622,273.141c-73.991,69.332-170.945,110.998-279.234,110.998
			c-97.721,0-188.086-34.01-260.984-91.777c67.699,78.011,160.518,131.275,264.979,144.912
			C2231.581,422.714,2328.286,361.861,2394.622,273.141z"/>
		<path d="M2394.622,273.141c-73.991,69.332-170.945,110.998-279.234,110.998c-97.721,0-188.086-34.01-260.984-91.777
			c67.699,78.011,160.518,131.275,264.979,144.912C2231.581,422.714,2328.286,361.861,2394.622,273.141z"/>
		<path d="M2350.327,39.919h-156.182v56.502h105.186h28.537C2336.796,79.006,2344.421,60.144,2350.327,39.919z"/>
		<path d="M2439.91-249.73l-91.589,7.37c14.188,15.081,26.871,31.594,37.79,49.731l77.942-6.852
			C2457.178-216.68,2449.063-233.438,2439.91-249.73z"/>
		<path d="M2119.096-374.515c-80.876,0-153.439,44.305-199.976,112.906c41.846-35.29,93.328-56.016,148.986-56.016
			c8.896,0,17.323,0.385,25.686,1.175c8.33-0.771,16.793-1.175,25.304-1.175c10.046,0,19.987,0.517,29.778,1.978
			c9.439-1.461,19.363-1.978,29.41-1.978c47.711,0,92.48,15.14,130.869,41.789C2262.255-336.225,2194.532-374.515,2119.096-374.515z
			"/>
		<polygon fill="#F0047F" points="1959.151,-899.576 1853.376,-899.576 2068.945,-677.077 2119.579,-677.077 1903.981,-899.576 		
			"/>
		<polygon fill="#FF0000" points="1959.151,-899.576 1903.981,-899.576 2119.579,-677.077 2178.767,-677.077 2123.654,-733.939 
			2119.579,-733.939 		"/>
		<polygon points="2166.503,-733.972 2123.654,-733.972 2178.767,-677.077 2200.308,-677.077 		"/>
		<path fill="#FFFF00" d="M2115.374-534.876c-137.37,0-259.592,67.477-339.292,172.627c76.604-72.053,177.952-115.73,288.688-115.73
			c8.462,0,16.922,0.222,25.301,0.606c8.379-0.384,16.825-0.606,25.303-0.606c10.012,0,19.938,0.287,29.779,0.838
			c9.85-0.551,19.434-0.838,29.408-0.838c98.053,0,188.434,33.983,260.944,91.808
			C2356.349-477.496,2242.163-534.876,2115.374-534.876z M2539.747-106.913h-175.191h-229.631v56.878h178.625h175.156h51.443
			c0.335-8.313,0.49-16.69,0.49-25.137C2540.64-85.687,2540.272-96.497,2539.747-106.913z M2263.399,176.206
			c-37.84,30.263-86.349,47.577-144.304,47.577c-47.679,0-92.45-15.048-130.889-41.829c35.915,46.004,83.562,79.059,137.501,92.861
			C2185.43,260.554,2231.804,225.525,2263.399,176.206z"/>
		<path fill="#FFFF00" d="M2263.399,176.206c-37.84,30.263-86.349,47.577-144.304,47.577c-47.679,0-92.45-15.048-130.889-41.829
			c35.915,46.004,83.562,79.059,137.501,92.861C2185.43,260.554,2231.804,225.525,2263.399,176.206z"/>
		<path fill="#FFFF00" d="M2539.747-106.913h-175.191h-229.631v56.878h178.625h175.156h51.443c0.335-8.313,0.49-16.69,0.49-25.137
			C2540.64-85.687,2540.272-96.497,2539.747-106.913z"/>
		<path fill="#FFFF00" d="M2115.374-534.876c-137.37,0-259.592,67.477-339.292,172.627c76.604-72.053,177.934-115.73,288.688-115.73
			c8.462,0,16.905,0.222,25.301,0.606c8.379-0.384,16.825-0.606,25.303-0.606c10.012,0,19.938,0.287,29.779,0.838
			c9.85-0.551,19.434-0.838,29.408-0.838c98.053,0,188.434,33.983,260.944,91.808
			C2356.349-477.496,2242.163-534.876,2115.374-534.876z"/>
		<path fill="#FFFF00" d="M2115.374-477.979c-8.478,0-16.924,0.203-25.303,0.622c9.981,0.47,19.922,1.684,29.41,2.728
			c8.363-0.929,17.193-2.038,25.672-2.512C2135.295-477.691,2125.386-477.979,2115.374-477.979z"/>
		<path fill="#008837" d="M2174.595-477.979c-10.008,0-19.561,0.287-29.418,0.838c146.111,10.365,272.274,97.147,343.498,223.343
			l26.361-2.135c-19.668-48.37-46.604-92.063-79.546-130.27C2362.963-443.996,2272.632-477.979,2174.595-477.979z"/>
		<path fill="#008837" d="M2145.153-477.141c-8.479,0.474-17.295,1.583-25.672,2.512c137.017,18.321,254.043,104.14,320.413,224.932
			l48.78-4.066C2417.451-379.96,2291.304-466.776,2145.153-477.141z"/>
		<path fill="#008837" d="M1864.466-46.73c-0.623,9.117-0.928,18.73-0.928,28.044c0,155.852,101.567,283.678,231.431,298.314
			c10.899-1.658,21.17-3.037,30.739-4.845c-53.939-13.771-101.619-46.825-137.501-92.795
			C1919.982,134.438,1872.319,50.515,1864.466-46.73z"/>
		<path fill="#008837" d="M1919.12-261.609c-64.75,54.112-106.629,143.113-106.629,242.907
			c0,165.496,114.605,299.366,255.581,299.366c9.396,0,18.287-0.345,26.863-1.036c-129.876-14.637-231.397-142.463-231.397-298.33
			c0-9.266,0.288-18.896,0.928-28.028c-0.656-9.549-0.928-19.143-0.928-28.441C1863.538-145.918,1884.28-210.454,1919.12-261.609z"
			/>
		<path fill="#008837" d="M2540.149-50.035h-51.443h51.022c0.108,1.628,0.157,2.827,0.241,4.42
			C2540.017-47.208,2540.099-48.407,2540.149-50.035z"/>
		<path fill="#008837" d="M2539.729-50.035h-50.989c0.502,10.417,1.29,20.801,1.29,31.349c0,110.869-35.644,212.7-95.356,291.827
			c83.748-78.191,137.771-191.407,145.297-318.739C2539.87-47.208,2539.812-48.407,2539.729-50.035z"/>
		<path fill="#FF0000" d="M2064.735-477.979c-110.733,0-212.049,43.637-288.621,115.73
			c-59.532,78.517-94.979,178.493-94.979,287.077c0,9.282,0.213,18.893,0.689,28.441c13.506-231.767,188.926-417.44,408.264-430.626
			C2081.644-477.775,2073.214-477.979,2064.735-477.979z"/>
		<path fill="#FF0000" d="M2090.071-477.356c-219.32,13.186-394.758,198.859-408.263,430.626
			c8.019,138.387,73.95,260.361,172.61,339.06c-70.778-81.854-114.104-190.914-114.104-311.016
			c0-234.158,165.283-427.314,379.166-455.958C2109.993-475.673,2100.085-476.887,2090.071-477.356z"/>
		<path fill="#FF0000" d="M2309.153-275.82c8.396,10.819,15.831,22.605,23.119,34.956l16.067-1.479
			C2336.157-254.897,2322.831-265.962,2309.153-275.82z"/>
		<rect x="2134.925" y="-50.035" fill="#FF0000" width="59.187" height="89.988"/>
		<path fill="#FF0000" d="M2350.327,96.454h-22.459c-16.321,31.825-38.01,58.816-64.488,79.752
			c-31.543,49.386-77.95,84.381-137.688,98.577c8.076,1.575,16.28,2.824,24.53,4.47
			C2253.827,267.192,2321.659,194.933,2350.327,96.454z"/>
		<path fill="#FF0000" d="M2409.18,96.454h-81.294h22.473c-28.699,98.479-96.531,170.738-200.137,182.799
			c9.371,0.95,18.491,1.411,28.095,1.411C2299.28,280.664,2377.813,204.742,2409.18,96.454z"/>
		<path d="M2125.691,274.783c-9.553,1.808-19.823,3.187-30.756,4.845c7.991,0.676,16.052,1.036,24.16,1.036
			c10.628,0,21.028-0.461,31.126-1.411C2141.939,277.607,2133.768,276.358,2125.691,274.783z"/>
		<path d="M2119.481-474.662C1905.599-446,1740.315-252.811,1740.315-18.687c0,120.102,43.308,229.146,114.104,311.048
			c72.899,57.768,163.296,91.777,260.955,91.777c108.28,0,205.291-41.666,279.264-110.998
			c59.764-79.127,95.392-180.958,95.392-291.843c0-10.548-0.772-20.948-1.323-31.333h-124.15H2194.13v89.954h156.229
			c-5.922,20.225-13.562,39.119-22.473,56.535h81.294c-31.348,108.305-109.899,184.21-230.863,184.21
			c-9.604,0-18.724-0.492-28.095-1.411c-10.113,0.919-20.455,1.411-31.094,1.411c-8.141,0-16.217-0.345-24.192-1.036
			c-8.61,0.676-17.448,1.036-26.848,1.036c-140.975,0-255.597-133.87-255.597-299.333c0-99.812,41.879-188.777,106.629-242.921
			c46.555-68.604,119.115-112.906,200.008-112.906c75.404,0,143.111,38.271,189.979,98.708
			c13.678,9.842,27.066,20.906,39.183,33.444l91.59-7.37C2373.509-370.489,2256.479-456.276,2119.481-474.662z"/>
		<polygon fill="#FFFF00" points="2119.579,-956.069 1904.021,-956.069 1959.134,-899.576 2068.945,-899.576 2153.384,-899.576 		
			"/>
		<polygon fill="#008837" points="2153.384,-899.576 2068.945,-899.576 2119.579,-899.576 2217.519,-733.939 2250.942,-733.939 		
			"/>
		<polygon fill="#008837" points="2119.579,-899.576 2068.945,-899.576 2166.503,-733.939 2217.519,-733.939 		"/>
		<polygon fill="#FF0000" points="1963.202,-899.576 1959.151,-899.576 2119.579,-733.939 2123.654,-733.939 		"/>
		<polygon points="2068.945,-899.576 1963.202,-899.576 2123.654,-733.939 2166.503,-733.939 		"/>
	</g>
	<polyline fill="none" stroke="#999999" stroke-width="2" stroke-miterlimit="10" points="381,160 381,85 413,85 	"/>
	<polyline fill="none" stroke="#999999" stroke-width="2" stroke-miterlimit="10" points="1613,156 1613,81 1581,81 	"/>
</g>
</svg>
