<?xml version="1.0" encoding="utf-8"?>
<!-- Generator: Adobe Illustrator 16.0.0, SVG Export Plug-In . SVG Version: 6.00 Build 0)  -->
<!DOCTYPE svg PUBLIC "-//W3C//DTD SVG 1.1//EN" "http://www.w3.org/Graphics/SVG/1.1/DTD/svg11.dtd">
<svg version="1.1" id="Capa_1" xmlns="http://www.w3.org/2000/svg" xmlns:xlink="http://www.w3.org/1999/xlink" x="0px" y="0px"
	 width="512px" height="135px" viewBox="0 0 512 135" enable-background="new 0 0 512 135" xml:space="preserve">
<g>
	<path fill="#FFFF00" d="M45.935,46.378l-3.336,0.272c0.037,0.064,0.098,0.152,0.136,0.24l3.343-0.296
		C46.037,46.531,45.996,46.442,45.935,46.378z M30.082,83.82c-0.56,0.104-1.15,0.154-1.745,0.186
		c0.498,0.023,1.002,0.036,1.506,0.036c0.595,0,1.185-0.017,1.769-0.05C31.107,83.963,30.581,83.873,30.082,83.82z"/>
	<path fill="#FFFF00" d="M30.082,83.82c-0.56,0.104-1.15,0.154-1.745,0.186c0.498,0.023,1.002,0.036,1.506,0.036
		c0.595,0,1.185-0.017,1.769-0.05C31.107,83.963,30.581,83.873,30.082,83.82z"/>
	<path fill="#FFFF00" d="M45.935,46.378l-3.336,0.272c0.037,0.064,0.098,0.152,0.136,0.241l3.343-0.296
		C46.037,46.531,45.996,46.442,45.935,46.378z"/>
	<path fill="#00A0C6" d="M48.871,34.872c1.959,2.27,3.559,4.87,4.729,7.743l-1.568,0.129c0.592,1.025,1.106,2.111,1.568,3.229
		l-7.524,0.622c0.067,0.098,0.111,0.197,0.177,0.298l10.865-0.92C55.322,41.555,52.47,37.742,48.871,34.872z"/>
	<path fill="#008837" d="M52.031,42.744l-2.899,0.242c0.547,0.967,1.025,1.962,1.434,2.987l-4.631,0.38
		c0.063,0.089,0.103,0.177,0.141,0.242l7.524-0.622C53.138,44.855,52.623,43.769,52.031,42.744z"/>
	<path fill="#00A0C6" d="M28.558,39.017c-7.209,0.838-12.94,7.565-13.629,16.033c0.469,5.78,3.302,10.768,7.355,13.593
		c-2.413-3.158-3.914-7.331-3.914-11.928c0-8.491,5.112-15.623,11.938-17.365C29.727,39.209,29.159,39.098,28.558,39.017z"/>
	<path fill="#008837" d="M27.032,38.949c-3.308,0-6.369,1.233-8.854,3.329c-2.071,3.041-3.305,6.878-3.305,11.082
		c0,0.553,0.019,1.125,0.054,1.689c0.69-8.465,6.421-15.192,13.63-16.03C28.062,38.972,27.538,38.949,27.032,38.949z"/>
	<path fill="#00A0C6" d="M58.585,54.854H55.09c-0.003,0.096-0.008,0.167-0.011,0.262c0.024,0.547,0.04,1.072,0.04,1.601
		c0,14.463-10.101,26.315-23.508,27.275c0.586,0.033,1.156,0.05,1.749,0.05c14.266,0,25.278-12.229,25.278-27.325
		C58.639,56.09,58.617,55.472,58.585,54.854z"/>
	<path fill="#008837" d="M55.08,55.116c-0.447,7.569-3.658,14.298-8.639,18.946c-3.943,5.271-9.692,8.891-16.358,9.758
		c0.498,0.053,1.024,0.143,1.53,0.174C44.994,83.032,55.12,71.182,55.12,56.716C55.12,56.188,55.104,55.664,55.08,55.116z"/>
	<polygon fill="#00A0C6" points="33.611,4.358 32.102,4.358 37.901,14.203 35.914,14.203 37.901,17.583 41.419,17.583 	"/>
	<polygon fill="#008837" points="35.914,14.201 32.884,14.201 34.892,17.583 33.611,17.583 37.901,17.583 	"/>
	<path fill="#F0047F" d="M9.676,36.296C4.343,41.301,1,48.604,1,56.716c0,15.101,11.566,27.326,25.833,27.326
		c0.505,0,1.006-0.013,1.504-0.036C14.782,83.193,4.031,71.287,4.031,56.716c0-0.549,0.014-1.122,0.042-1.666
		c-0.028-0.569-0.042-1.14-0.042-1.69C4.031,46.903,6.141,40.963,9.676,36.296z"/>
	<path fill="#FF0000" d="M4.072,55.05c-0.028,0.545-0.041,1.116-0.041,1.667c0,14.568,10.748,26.477,24.307,27.289
		c0.593-0.029,1.183-0.078,1.744-0.188c-6.21-0.813-11.725-3.979-15.751-8.613C8.469,70.525,4.549,63.275,4.072,55.05z"/>
	<path fill="#F0047F" d="M31.834,39.066c-0.529,0.056-1.032,0.159-1.526,0.286c3.904,0.998,7.238,3.766,9.393,7.539l2.896-0.242
		C40.166,42.523,36.286,39.668,31.834,39.066z"/>
	<path fill="#FF0000" d="M33.584,38.949c-0.598,0-1.189,0.031-1.748,0.118c4.449,0.602,8.33,3.457,10.761,7.582l3.336-0.271
		c-0.648-1.078-1.402-2.062-2.247-2.956l-0.953,0.088c-0.431-0.732-0.875-1.434-1.374-2.077
		C39.079,39.849,36.418,38.949,33.584,38.949z"/>
	<rect x="27.971" y="54.854" fill="#F0047F" width="3.035" height="8.704"/>
	<polygon fill="#FF0000" points="31.005,54.854 31.005,54.854 31.005,63.558 34.523,63.558 34.523,60.2 31.005,60.2 	"/>
	<path fill="#F0047F" d="M42.474,63.56h-1.698c-0.502,1.752-1.214,3.347-2.135,4.741C40.216,67.056,41.503,65.452,42.474,63.56z"/>
	<path fill="#13007C" d="M30.064,38.949c-0.506,0-1.009,0.023-1.504,0.07c0.599,0.079,1.167,0.191,1.748,0.333
		c0.494-0.127,0.997-0.229,1.526-0.286C31.251,38.98,30.661,38.949,30.064,38.949z"/>
	<path d="M30.064,35.567c-4.807,0-9.12,2.633-11.886,6.711c2.487-2.098,5.547-3.33,8.855-3.33c0.529,0,1.03,0.023,1.527,0.07
		c0.494-0.046,0.998-0.07,1.504-0.07c0.597,0,1.188,0.031,1.77,0.118c0.561-0.087,1.151-0.118,1.748-0.118
		c2.836,0,5.497,0.9,7.779,2.484C38.573,37.842,34.548,35.567,30.064,35.567z M49.133,42.984l-5.444,0.438
		c0.843,0.896,1.597,1.878,2.246,2.956l4.633-0.407C50.159,44.948,49.677,43.952,49.133,42.984z M43.809,60.2h-9.284v3.358h6.252
		h1.696C43.004,62.524,43.457,61.402,43.809,60.2z M46.441,74.063c-4.398,4.121-10.161,6.598-16.597,6.598
		c-5.809,0-11.18-2.021-15.513-5.455c4.024,4.637,9.541,7.803,15.75,8.613C36.75,82.953,42.498,79.336,46.441,74.063z"/>
	<path d="M46.441,74.063c-4.398,4.121-10.161,6.598-16.597,6.598c-5.809,0-11.18-2.021-15.513-5.455
		c4.024,4.637,9.541,7.803,15.75,8.613C36.75,82.953,42.498,79.336,46.441,74.063z"/>
	<path d="M43.808,60.2h-9.283v3.358h6.252h1.696C43.004,62.524,43.457,61.402,43.808,60.2z"/>
	<path d="M49.133,42.984l-5.444,0.438c0.843,0.896,1.597,1.878,2.246,2.956l4.633-0.407C50.159,44.948,49.677,43.952,49.133,42.984z
		"/>
	<path d="M30.064,35.567c-4.807,0-9.12,2.633-11.886,6.711c2.487-2.098,5.547-3.33,8.855-3.33c0.529,0,1.03,0.023,1.527,0.07
		c0.495-0.046,0.998-0.07,1.504-0.07c0.597,0,1.188,0.031,1.77,0.118c0.561-0.087,1.151-0.118,1.748-0.118
		c2.836,0,5.497,0.9,7.779,2.484C38.573,37.843,34.548,35.567,30.064,35.567z"/>
	<polygon fill="#F0047F" points="20.557,4.358 14.27,4.358 27.083,17.583 30.093,17.583 17.278,4.358 	"/>
	<polygon fill="#FF0000" points="20.557,4.358 17.278,4.358 30.093,17.583 33.611,17.583 30.335,14.203 30.093,14.203 	"/>
	<polygon points="32.882,14.201 30.335,14.201 33.611,17.583 34.891,17.583 	"/>
	<path fill="#FFFF00" d="M29.843,26.035c-8.165,0-15.43,4.011-20.167,10.261c4.553-4.283,10.577-6.879,17.159-6.879
		c0.503,0,1.006,0.013,1.504,0.036c0.498-0.023,1-0.036,1.504-0.036c0.595,0,1.185,0.017,1.77,0.05
		c0.585-0.033,1.155-0.05,1.748-0.05c5.828,0,11.2,2.02,15.51,5.457C44.166,29.446,37.379,26.035,29.843,26.035z M55.067,51.472
		H44.654H31.005v3.382h10.617h10.411h3.058c0.02-0.495,0.029-0.993,0.029-1.495C55.12,52.734,55.098,52.092,55.067,51.472z
		 M38.641,68.301c-2.249,1.799-5.132,2.828-8.577,2.828c-2.834,0-5.495-0.895-7.78-2.486c2.135,2.734,4.967,4.699,8.173,5.521
		C34.007,73.314,36.763,71.232,38.641,68.301z"/>
	<path fill="#FFFF00" d="M38.641,68.301c-2.249,1.799-5.132,2.828-8.577,2.828c-2.834,0-5.495-0.895-7.78-2.486
		c2.135,2.734,4.967,4.699,8.173,5.521C34.007,73.314,36.763,71.232,38.641,68.301z"/>
	<path fill="#FFFF00" d="M55.067,51.472H44.654H31.005v3.382h10.617h10.411h3.058c0.02-0.495,0.029-0.993,0.029-1.494
		C55.12,52.734,55.098,52.092,55.067,51.472z"/>
	<path fill="#FFFF00" d="M29.843,26.035c-8.165,0-15.43,4.011-20.167,10.261c4.553-4.283,10.576-6.879,17.159-6.879
		c0.503,0,1.005,0.013,1.504,0.036c0.498-0.023,1-0.036,1.504-0.036c0.595,0,1.185,0.017,1.77,0.05
		c0.585-0.033,1.155-0.05,1.748-0.05c5.828,0,11.2,2.02,15.51,5.457C44.166,29.446,37.379,26.035,29.843,26.035z"/>
	<path fill="#FFFF00" d="M29.843,29.417c-0.504,0-1.006,0.012-1.504,0.037c0.593,0.028,1.184,0.1,1.748,0.162
		c0.497-0.055,1.022-0.121,1.526-0.149C31.027,29.434,30.438,29.417,29.843,29.417z"/>
	<path fill="#008837" d="M33.363,29.417c-0.595,0-1.163,0.017-1.749,0.05c8.685,0.616,16.184,5.774,20.417,13.275l1.567-0.127
		c-1.169-2.875-2.77-5.472-4.728-7.743C44.559,31.437,39.19,29.417,33.363,29.417z"/>
	<path fill="#008837" d="M31.613,29.467c-0.504,0.028-1.028,0.094-1.526,0.149c8.144,1.089,15.1,6.19,19.045,13.37l2.899-0.242
		C47.798,35.243,40.3,30.083,31.613,29.467z"/>
	<path fill="#008837" d="M14.929,55.05c-0.037,0.542-0.055,1.113-0.055,1.667c0,9.263,6.037,16.861,13.756,17.731
		c0.648-0.099,1.258-0.181,1.827-0.288c-3.206-0.818-6.04-2.783-8.173-5.516C18.229,65.818,15.396,60.83,14.929,55.05z"/>
	<path fill="#008837" d="M18.178,42.278c-3.849,3.216-6.338,8.506-6.338,14.438c0,9.837,6.812,17.794,15.191,17.794
		c0.559,0,1.087-0.021,1.597-0.062c-7.72-0.87-13.754-8.468-13.754-17.732c0-0.551,0.017-1.123,0.055-1.666
		c-0.039-0.567-0.055-1.138-0.055-1.691C14.874,49.154,16.107,45.319,18.178,42.278z"/>
	<path fill="#008837" d="M55.091,54.854h-3.058h3.033c0.006,0.096,0.009,0.167,0.014,0.262
		C55.083,55.021,55.088,54.95,55.091,54.854z"/>
	<path fill="#008837" d="M55.066,54.854h-3.031c0.03,0.618,0.077,1.236,0.077,1.863c0,6.589-2.119,12.643-5.668,17.346
		c4.978-4.646,8.189-11.375,8.636-18.944C55.074,55.021,55.071,54.95,55.066,54.854z"/>
	<path fill="#FF0000" d="M26.833,29.417c-6.582,0-12.604,2.594-17.155,6.879C6.139,40.963,4.032,46.905,4.032,53.36
		c0,0.551,0.013,1.123,0.041,1.69c0.803-13.776,11.23-24.812,24.267-25.596C27.838,29.429,27.337,29.417,26.833,29.417z"/>
	<path fill="#FF0000" d="M28.339,29.454C15.303,30.238,4.875,41.274,4.072,55.05c0.477,8.226,4.396,15.476,10.26,20.153
		C10.125,70.338,7.55,63.856,7.55,56.717c0-13.918,9.824-25.399,22.537-27.102C29.523,29.554,28.934,29.482,28.339,29.454z"/>
	<path fill="#FF0000" d="M41.361,41.433c0.499,0.643,0.941,1.344,1.374,2.078l0.955-0.088
		C42.966,42.677,42.174,42.019,41.361,41.433z"/>
	<rect x="31.005" y="54.854" fill="#FF0000" width="3.518" height="5.348"/>
	<path fill="#FF0000" d="M43.808,63.56h-1.335c-0.97,1.892-2.259,3.496-3.833,4.741c-1.875,2.936-4.633,5.016-8.184,5.859
		c0.48,0.094,0.968,0.168,1.458,0.266C38.072,73.709,42.104,69.414,43.808,63.56z"/>
	<path fill="#FF0000" d="M47.306,63.56h-4.832h1.336c-1.706,5.854-5.738,10.149-11.896,10.866c0.557,0.057,1.099,0.084,1.67,0.084
		C40.774,74.51,45.442,69.997,47.306,63.56z"/>
	<path d="M30.456,74.16c-0.568,0.107-1.178,0.189-1.828,0.288c0.475,0.04,0.954,0.062,1.436,0.062c0.632,0,1.25-0.027,1.85-0.084
		C31.422,74.328,30.936,74.254,30.456,74.16z"/>
	<path d="M30.087,29.614C17.374,31.318,7.55,42.801,7.55,56.717c0,7.138,2.574,13.62,6.782,18.488
		c4.333,3.434,9.706,5.455,15.511,5.455c6.436,0,12.202-2.477,16.599-6.598c3.552-4.703,5.67-10.756,5.67-17.348
		c0-0.627-0.046-1.246-0.079-1.863h-7.379h-10.13V60.2h9.286c-0.352,1.203-0.806,2.326-1.336,3.36h4.832
		c-1.863,6.438-6.532,10.95-13.722,10.95c-0.571,0-1.113-0.029-1.67-0.084c-0.601,0.055-1.216,0.084-1.848,0.084
		c-0.484,0-0.964-0.021-1.438-0.062c-0.512,0.04-1.037,0.062-1.596,0.062c-8.379,0-15.192-7.957-15.192-17.792
		c0-5.933,2.489-11.221,6.338-14.439c2.767-4.078,7.08-6.711,11.888-6.711c4.482,0,8.506,2.275,11.292,5.867
		c0.813,0.585,1.609,1.243,2.329,1.988l5.444-0.438C45.186,35.806,38.23,30.707,30.087,29.614z"/>
	<polygon fill="#FFFF00" points="30.093,1 17.28,1 20.556,4.358 27.083,4.358 32.102,4.358 	"/>
	<polygon fill="#008837" points="32.102,4.358 27.083,4.358 30.093,4.358 35.914,14.203 37.901,14.203 	"/>
	<polygon fill="#008837" points="30.093,4.358 27.083,4.358 32.882,14.203 35.914,14.203 	"/>
	<polygon fill="#FF0000" points="20.798,4.358 20.557,4.358 30.093,14.203 30.335,14.203 	"/>
	<polygon points="27.083,4.358 20.798,4.358 30.335,14.203 32.882,14.203 	"/>
	<path d="M74.006,47.242h3.977v9.45c0,1.042-0.078,1.822-0.208,2.384c-0.131,0.539-0.354,1.027-0.648,1.464
		c-0.421,0.539-0.917,0.947-1.512,1.249c-0.594,0.272-1.249,0.408-1.985,0.408c-0.928,0-1.729-0.181-2.448-0.592
		c-0.721-0.386-1.334-0.973-1.841-1.736l2.432-2.201c0.048,0.443,0.186,0.758,0.409,0.992c0.224,0.235,0.493,0.352,0.832,0.352
		c0.376,0,0.632-0.216,0.769-0.624c0.141-0.408,0.223-1.464,0.223-3.145V47.242L74.006,47.242z"/>
	<path d="M80.823,47.242h3.954v7.089c0,1.03,0.043,1.776,0.087,2.24c0.043,0.459,0.139,0.835,0.264,1.128
		c0.147,0.371,0.431,0.672,0.809,0.856c0.376,0.203,0.842,0.304,1.376,0.304c0.557,0,0.997-0.101,1.369-0.304
		c0.376-0.185,0.663-0.485,0.816-0.856c0.125-0.293,0.222-0.669,0.264-1.128c0.067-0.464,0.088-1.21,0.088-2.24v-0.993v-6.097h3.945
		v7.706c0,1.598-0.101,2.787-0.28,3.545c-0.203,0.751-0.512,1.392-0.977,1.944c-0.495,0.594-1.189,1.024-2.056,1.336
		c-0.867,0.282-1.932,0.424-3.169,0.424c-1.243,0-2.31-0.142-3.177-0.424c-0.861-0.312-1.554-0.742-2.057-1.336
		c-0.435-0.553-0.768-1.193-0.976-1.944c-0.179-0.758-0.28-1.947-0.28-3.545v-1.528V47.242z"/>
	<path d="M96.818,61.812v-14.57h3.824l5.506,7.489c0.108,0.147,0.295,0.467,0.536,0.937c0.245,0.44,0.509,1,0.792,1.632
		c-0.064-0.605-0.137-1.134-0.168-1.608c-0.028-0.475-0.064-0.883-0.064-1.248v-7.202h3.833v14.571h-3.833l-5.505-7.538
		c-0.115-0.146-0.283-0.439-0.528-0.904c-0.24-0.469-0.499-1.002-0.799-1.648c0.087,0.611,0.156,1.166,0.183,1.64
		c0.032,0.475,0.048,0.883,0.048,1.248v7.202L96.818,61.812L96.818,61.812z"/>
	<polygon points="116.309,61.812 116.309,50.683 113.037,50.683 113.037,47.242 123.543,47.242 123.543,50.683 120.271,50.683 
		120.271,61.812 	"/>
	<path d="M126.128,57.092c0.595,0.683,1.182,1.182,1.736,1.52c0.584,0.315,1.165,0.496,1.72,0.496c0.547,0,0.968-0.138,1.312-0.44
		c0.35-0.277,0.512-0.64,0.512-1.087c0-0.485-0.144-0.856-0.432-1.113c-0.307-0.261-0.963-0.527-2.017-0.8
		c-1.41-0.405-2.438-0.904-3.008-1.521c-0.596-0.616-0.905-1.464-0.905-2.544c0-1.384,0.47-2.512,1.409-3.384
		c0.92-0.902,2.133-1.328,3.616-1.329c0.813,0,1.568,0.112,2.288,0.312c0.726,0.219,1.419,0.552,2.057,0.976l-1.24,2.873
		c-0.459-0.381-0.928-0.686-1.408-0.864c-0.475-0.208-0.923-0.312-1.393-0.312c-0.479,0-0.863,0.118-1.176,0.352
		c-0.288,0.23-0.432,0.512-0.432,0.872c0,0.366,0.128,0.672,0.384,0.896c0.262,0.2,0.766,0.417,1.512,0.625l0.192,0.04
		c1.613,0.448,2.687,0.931,3.192,1.448c0.35,0.36,0.608,0.779,0.776,1.28c0.192,0.52,0.288,1.062,0.288,1.672
		c0,1.555-0.528,2.795-1.536,3.745c-1.008,0.92-2.36,1.392-4.057,1.392c-1.032,0-1.944-0.163-2.784-0.512
		c-0.836-0.35-1.622-0.88-2.409-1.616L126.128,57.092z"/>
	<polygon points="143.715,61.812 143.715,47.242 152.645,47.242 152.645,50.434 147.596,50.434 147.596,52.971 152.364,52.971 
		152.364,56.083 147.596,56.083 147.596,61.812 	"/>
	<polygon points="154.812,61.812 154.812,47.242 163.742,47.242 163.742,50.434 158.694,50.434 158.694,52.971 163.463,52.971 
		163.463,56.083 158.694,56.083 158.694,58.54 163.742,58.54 163.742,61.812 	"/>
	<path d="M183.106,61.812h-3.728l-0.856-6.313c-0.048-0.429-0.118-0.922-0.161-1.48c-0.038-0.533-0.096-1.131-0.128-1.769
		c-0.099,0.616-0.271,1.379-0.56,2.313c-0.048,0.178-0.083,0.317-0.128,0.416l-1.977,6.833h-2.656l-1.977-6.833
		c-0.021-0.099-0.054-0.238-0.119-0.416c-0.272-0.934-0.467-1.694-0.536-2.305c-0.056,0.539-0.094,1.099-0.137,1.632
		c-0.066,0.552-0.118,1.08-0.2,1.608l-0.855,6.313H165.4l2.24-14.571h3.929l2.2,7.505c0.033,0.067,0.055,0.136,0.087,0.256
		c0.214,0.683,0.342,1.264,0.384,1.721c0.022-0.256,0.086-0.533,0.145-0.856c0.082-0.304,0.187-0.683,0.312-1.136l2.217-7.489h3.937
		L183.106,61.812z"/>
	<path d="M198.549,56.443v-3.057h7.81c0.005,0.104,0.008,0.216,0.008,0.336c0.006,0.12,0.031,0.285,0.031,0.52
		c0,2.521-0.677,4.47-2.006,5.849c-1.326,1.374-3.183,2.072-5.594,2.072c-1.166,0-2.227-0.189-3.137-0.521
		c-0.928-0.359-1.754-0.917-2.48-1.648c-0.675-0.704-1.227-1.509-1.609-2.464c-0.376-0.96-0.553-1.955-0.553-3.009
		c0-1.09,0.175-2.085,0.545-2.984c0.371-0.928,0.936-1.733,1.672-2.464c0.73-0.715,1.57-1.267,2.497-1.633
		c0.955-0.365,1.969-0.535,3.064-0.536c1.434,0,2.688,0.274,3.785,0.848c1.101,0.549,2.037,1.392,2.784,2.504l-3.441,1.665
		c-0.403-0.573-0.872-0.981-1.385-1.248c-0.53-0.296-1.089-0.432-1.744-0.432c-1.172,0-2.116,0.416-2.809,1.2
		c-0.669,0.803-1.016,1.864-1.016,3.257c0,1.379,0.347,2.472,1.016,3.28c0.693,0.784,1.636,1.176,2.809,1.176
		c1.026,0,1.869-0.245,2.528-0.736c0.688-0.496,1.078-1.146,1.192-1.976L198.549,56.443L198.549,56.443z"/>
	<path d="M207.095,61.812l5.047-14.571h4.962l5.055,14.571h-3.967l-0.736-2.601h-5.641l-0.752,2.601H207.095z M212.672,56.355h3.945
		l-1.48-4.801c-0.038-0.141-0.112-0.379-0.177-0.712c-0.087-0.309-0.194-0.741-0.319-1.248c-0.092,0.36-0.164,0.707-0.256,1.016
		c-0.087,0.334-0.155,0.657-0.248,0.945L212.672,56.355z"/>
	<path d="M227.332,61.812l-6.114-14.571h4.232l2.921,8.137c0.021,0.094,0.065,0.31,0.151,0.648c0.094,0.31,0.182,0.761,0.336,1.305
		c0.086-0.429,0.191-0.848,0.289-1.185c0.098-0.359,0.155-0.607,0.215-0.768l2.882-8.137h4.232l-6.113,14.571H227.332z"/>
	<path d="M240.598,42.185h2.801l1.793,3.497h-1.521L240.598,42.185z M235.956,61.812l5.024-14.571h4.979L251,61.812h-3.945
		l-0.736-2.601h-5.663l-0.753,2.601H235.956z M241.512,56.355h3.963l-1.479-4.801c-0.059-0.141-0.109-0.379-0.198-0.712
		c-0.086-0.309-0.17-0.741-0.317-1.248c-0.07,0.36-0.162,0.707-0.256,1.016c-0.064,0.334-0.154,0.657-0.25,0.945L241.512,56.355z"/>
</g>
<g enable-background="new    ">
	<path fill="#FF280B" d="M90.632,90.295c0,3.678-1.166,6.71-3.497,9.096c-2.331,2.387-5.376,3.578-9.136,3.578
		c-3.787,0-6.856-1.191-9.208-3.578c-2.352-2.386-3.527-5.418-3.527-9.096v-5.373c0-3.664,1.172-6.691,3.517-9.085
		c2.345-2.394,5.404-3.589,9.177-3.589c3.746,0,6.795,1.195,9.146,3.589s3.527,5.421,3.527,9.085L90.632,90.295L90.632,90.295z
		 M83.721,84.881c0-2.133-0.502-3.883-1.507-5.25c-1.005-1.367-2.423-2.051-4.255-2.051c-1.873,0-3.305,0.681-4.296,2.04
		c-0.991,1.36-1.487,3.114-1.487,5.261v5.414c0,2.16,0.502,3.924,1.507,5.291s2.444,2.051,4.317,2.051
		c1.818,0,3.227-0.684,4.225-2.051s1.497-3.131,1.497-5.291L83.721,84.881L83.721,84.881z"/>
	<path fill="#FF280B" d="M94.651,102.538V72.68h10.254c3.705,0,6.597,0.688,8.675,2.062c2.078,1.375,3.117,3.422,3.117,6.143
		c0,1.423-0.335,2.688-1.005,3.794c-0.67,1.107-1.702,1.941-3.097,2.504c1.75,0.396,3.042,1.191,3.876,2.389
		s1.251,2.574,1.251,4.133c0,2.912-0.978,5.113-2.933,6.604c-1.955,1.491-4.758,2.235-8.408,2.235h-11.73V102.538z M101.604,85.127
		h3.445c1.572-0.027,2.748-0.331,3.527-0.913c0.779-0.58,1.169-1.432,1.169-2.553c0-1.271-0.396-2.197-1.189-2.779
		c-0.793-0.58-2.01-0.871-3.65-0.871h-3.302V85.127z M101.604,89.721v7.485h4.778c1.477,0,2.584-0.29,3.322-0.871
		c0.738-0.581,1.107-1.474,1.107-2.677c0-1.299-0.318-2.279-0.954-2.942c-0.636-0.663-1.665-0.995-3.086-0.995H101.604z"/>
	<path fill="#FF280B" d="M128.571,91.096v11.442h-6.952V72.68h11.484c3.459,0,6.2,0.799,8.224,2.398
		c2.024,1.599,3.035,3.787,3.035,6.563c0,1.545-0.407,2.869-1.22,3.979c-0.813,1.107-2.013,2.01-3.599,2.707
		c1.832,0.52,3.148,1.384,3.948,2.595c0.8,1.209,1.2,2.718,1.2,4.521v1.889c0,0.777,0.116,1.668,0.349,2.666s0.636,1.709,1.21,2.133
		v0.41h-7.137c-0.547-0.424-0.906-1.178-1.077-2.256c-0.171-1.08-0.256-2.078-0.256-2.994v-1.807c0-1.422-0.376-2.508-1.128-3.26
		s-1.853-1.129-3.302-1.129h-4.779V91.096z M128.571,85.764h4.573c1.395,0,2.461-0.318,3.199-0.953
		c0.738-0.638,1.107-1.55,1.107-2.737c0-1.218-0.379-2.197-1.138-2.943c-0.759-0.744-1.829-1.116-3.209-1.116h-4.532V85.764z"/>
	<path fill="#FF280B" d="M168.008,89.762h-11.71v7.444H170.1v5.332h-20.754V72.68h20.795v5.331h-13.843v6.419h11.71V89.762
		L168.008,89.762z"/>
	<path fill="#FF280B" d="M189.09,94.622c0-1.054-0.349-1.866-1.046-2.44c-0.697-0.574-1.948-1.183-3.753-1.824
		c-3.773-1.188-6.569-2.465-8.388-3.823c-1.819-1.36-2.728-3.326-2.728-5.896c0-2.503,1.083-4.525,3.25-6.07
		s4.918-2.316,8.254-2.316c3.309,0,6.02,0.852,8.131,2.555c2.112,1.7,3.134,3.894,3.066,6.571l-0.041,0.123h-6.727
		c0-1.188-0.403-2.156-1.21-2.901c-0.807-0.744-1.921-1.117-3.343-1.117c-1.395,0-2.488,0.309-3.281,0.923s-1.189,1.375-1.189,2.276
		c0,0.875,0.4,1.575,1.2,2.103c0.8,0.526,2.3,1.187,4.501,1.979c3.391,1.012,5.944,2.256,7.66,3.731
		c1.716,1.476,2.574,3.507,2.574,6.091c0,2.625-1.022,4.682-3.066,6.162c-2.044,1.482-4.754,2.227-8.131,2.227
		c-3.391,0-6.323-0.852-8.798-2.555c-2.475-1.701-3.678-4.15-3.609-7.354l0.041-0.123h6.747c0,1.725,0.465,2.953,1.395,3.691
		c0.93,0.738,2.338,1.107,4.225,1.107c1.436,0,2.505-0.287,3.209-0.861C188.737,96.305,189.09,95.552,189.09,94.622z"/>
	<path fill="#FF280B" d="M233.797,98.416c-1.012,1.203-2.481,2.264-4.409,3.18c-1.928,0.915-4.348,1.373-7.26,1.373
		c-3.691,0-6.689-1.135-8.993-3.404c-2.304-2.269-3.456-5.215-3.456-8.838v-6.233c0-3.597,1.125-6.535,3.374-8.818
		c2.249-2.282,5.145-3.425,8.686-3.425c3.842,0,6.72,0.891,8.634,2.666s3.001,4.204,3.261,7.279l-0.041,0.123h-6.501
		c-0.232-1.571-0.742-2.756-1.528-3.549s-1.986-1.188-3.599-1.188c-1.613,0-2.912,0.641-3.896,1.917
		c-0.984,1.278-1.477,2.931-1.477,4.953v6.274c0,2.078,0.485,3.75,1.456,5.015c0.971,1.266,2.331,1.896,4.081,1.896
		c1.271,0,2.27-0.103,2.994-0.308s1.299-0.479,1.723-0.82v-4.717h-4.696v-4.594h11.648L233.797,98.416L233.797,98.416z"/>
	<path fill="#FF280B" d="M253.895,96.734h-9.412l-1.683,5.804h-6.973l9.639-29.858h7.444l9.658,29.858h-6.973L253.895,96.734z
		 M246.02,91.402h6.338l-3.117-10.687h-0.123L246.02,91.402z"/>
	<path fill="#FF280B" d="M273.828,94.438l0.205,1.088h0.123l0.205-1.006l5.927-21.84h7.26l-9.68,29.858h-7.485l-9.639-29.858h7.238
		L273.828,94.438z"/>
	<path fill="#FF280B" d="M304.2,96.734h-9.413l-1.682,5.804h-6.975l9.641-29.858h7.442l9.659,29.858H305.9L304.2,96.734z
		 M296.325,91.402h6.337l-3.117-10.687h-0.123L296.325,91.402z"/>
	<path fill="#FF280B" d="M348.702,92.059l0.041,0.123c-0.138,3.5-1.173,6.174-3.107,8.021c-1.934,1.846-4.739,2.771-8.418,2.771
		c-3.689,0-6.691-1.137-9.003-3.404c-2.311-2.271-3.466-5.217-3.466-8.84v-6.233c0-3.609,1.11-6.554,3.332-8.828
		c2.222-2.276,5.11-3.415,8.665-3.415c3.772,0,6.658,0.95,8.654,2.852c1.996,1.9,3.123,4.602,3.384,8.102l-0.041,0.123h-6.747
		c-0.096-1.941-0.53-3.385-1.303-4.327c-0.773-0.942-2.088-1.415-3.947-1.415c-1.572,0-2.812,0.633-3.712,1.896
		c-0.902,1.265-1.354,2.922-1.354,4.974v6.274c0,2.063,0.492,3.731,1.479,5.004c0.984,1.271,2.338,1.906,4.061,1.906
		c1.668,0,2.852-0.442,3.548-1.332c0.697-0.89,1.095-2.305,1.189-4.246h6.747L348.702,92.059L348.702,92.059z"/>
	<path fill="#FF280B" d="M359.816,102.538h-6.91V72.68h6.91V102.538z"/>
	<path fill="#FF280B" d="M389.473,72.68v19.563c0,3.403-1.133,6.043-3.395,7.916c-2.264,1.873-5.228,2.81-8.891,2.81
		c-3.705,0-6.692-0.937-8.964-2.81c-2.27-1.873-3.403-4.513-3.403-7.916V72.68h6.953v19.563c0,1.832,0.472,3.188,1.414,4.069
		c0.942,0.883,2.275,1.322,4,1.322c1.709,0,3.023-0.438,3.945-1.312c0.925-0.875,1.386-2.235,1.386-4.081V72.68H389.473z"/>
	<path fill="#FF280B" d="M414.859,78.011h-7.875v24.527h-6.951V78.011h-7.813V72.68h22.643v5.331H414.859z"/>
	<path fill="#FF280B" d="M431.308,96.734h-9.413l-1.682,5.804h-6.973l9.639-29.858h7.444l9.659,29.858h-6.975L431.308,96.734z
		 M423.433,91.402h6.337l-3.115-10.687h-0.123L423.433,91.402z"/>
	<path fill="#FF280B" d="M461.105,78.011h-7.875v24.527h-6.952V78.011h-7.813V72.68h22.642L461.105,78.011L461.105,78.011z"/>
</g>
<g enable-background="new    ">
	<path d="M68.363,128.357h-1.141V114.85h1.141V128.357z"/>
	<path d="M72.825,118.319l0.037,1.716c0.377-0.618,0.847-1.09,1.41-1.414c0.563-0.325,1.184-0.487,1.865-0.487
		c1.076,0,1.877,0.303,2.403,0.909c0.525,0.606,0.792,1.516,0.798,2.728v6.587h-1.104v-6.596c-0.006-0.897-0.196-1.565-0.571-2.004
		c-0.374-0.439-0.973-0.659-1.795-0.659c-0.687,0-1.294,0.215-1.823,0.645c-0.528,0.431-0.92,1.01-1.173,1.739v6.875h-1.104v-10.038
		H72.825z"/>
	<path d="M83.002,128.357v-9.129h-1.661v-0.909h1.661v-1.216c0-1.026,0.261-1.814,0.784-2.365c0.522-0.551,1.25-0.826,2.185-0.826
		c0.42,0,0.813,0.053,1.178,0.157l-0.083,0.919c-0.31-0.074-0.646-0.111-1.011-0.111c-0.612,0-1.089,0.191-1.429,0.572
		c-0.34,0.382-0.51,0.923-0.51,1.624v1.246h2.394v0.909h-2.394v9.129H83.002z"/>
	<path d="M87.882,123.189c0-0.965,0.187-1.833,0.562-2.606c0.374-0.773,0.903-1.374,1.586-1.805c0.684-0.43,1.458-0.645,2.324-0.645
		c1.336,0,2.418,0.469,3.247,1.405c0.829,0.938,1.243,2.179,1.243,3.725v0.232c0,0.971-0.187,1.845-0.562,2.621
		c-0.374,0.776-0.901,1.374-1.582,1.795c-0.681,0.421-1.457,0.631-2.329,0.631c-1.33,0-2.411-0.469-3.242-1.405
		c-0.832-0.938-1.248-2.179-1.248-3.726V123.189z M88.996,123.496c0,1.2,0.311,2.185,0.933,2.955
		c0.621,0.77,1.436,1.154,2.444,1.154c1.002,0,1.813-0.385,2.436-1.154c0.621-0.771,0.932-1.786,0.932-3.048v-0.214
		c0-0.767-0.143-1.469-0.427-2.105c-0.285-0.637-0.684-1.13-1.197-1.479c-0.514-0.35-1.101-0.524-1.763-0.524
		c-0.99,0-1.797,0.389-2.421,1.164c-0.625,0.776-0.937,1.792-0.937,3.048V123.496z"/>
	<path d="M103.774,119.266c-0.235-0.043-0.486-0.064-0.751-0.064c-0.693,0-1.279,0.193-1.758,0.579
		c-0.479,0.387-0.821,0.948-1.025,1.685v6.893h-1.104v-10.038h1.085l0.019,1.596c0.587-1.188,1.531-1.781,2.83-1.781
		c0.309,0,0.553,0.04,0.733,0.12L103.774,119.266z"/>
	<path d="M106.539,118.319l0.037,1.633c0.371-0.606,0.835-1.061,1.392-1.364c0.557-0.303,1.175-0.454,1.855-0.454
		c1.583,0,2.588,0.649,3.015,1.948c0.358-0.625,0.838-1.105,1.438-1.442c0.6-0.337,1.262-0.506,1.985-0.506
		c2.152,0,3.25,1.175,3.293,3.525v6.698h-1.113v-6.615c-0.006-0.896-0.199-1.562-0.58-1.994c-0.38-0.433-1-0.649-1.86-0.649
		c-0.798,0.013-1.472,0.271-2.022,0.774c-0.551,0.505-0.857,1.118-0.918,1.842v6.643h-1.113v-6.698
		c-0.006-0.859-0.209-1.501-0.607-1.925c-0.399-0.424-1.013-0.636-1.842-0.636c-0.699,0-1.299,0.199-1.8,0.599
		c-0.501,0.398-0.872,0.991-1.113,1.776v6.884h-1.113v-10.038H106.539z"/>
	<path d="M128.703,128.357c-0.111-0.315-0.183-0.782-0.213-1.4c-0.39,0.507-0.886,0.898-1.489,1.173
		c-0.603,0.275-1.242,0.413-1.916,0.413c-0.965,0-1.746-0.27-2.342-0.807c-0.597-0.539-0.896-1.219-0.896-2.041
		c0-0.978,0.407-1.751,1.22-2.32c0.813-0.568,1.947-0.854,3.4-0.854h2.013v-1.141c0-0.718-0.221-1.281-0.664-1.693
		c-0.442-0.411-1.087-0.617-1.934-0.617c-0.773,0-1.414,0.198-1.92,0.594c-0.507,0.396-0.761,0.873-0.761,1.43l-1.113-0.01
		c0-0.798,0.371-1.489,1.113-2.073c0.742-0.585,1.654-0.877,2.737-0.877c1.119,0,2.002,0.28,2.649,0.84
		c0.646,0.56,0.979,1.341,0.997,2.343v4.75c0,0.971,0.102,1.697,0.306,2.18v0.111H128.703z M125.214,127.56
		c0.742,0,1.406-0.18,1.99-0.538c0.585-0.358,1.01-0.838,1.276-1.438v-2.209h-1.985c-1.107,0.013-1.973,0.216-2.598,0.608
		c-0.625,0.393-0.937,0.933-0.937,1.618c0,0.563,0.209,1.03,0.626,1.401C124.004,127.374,124.546,127.56,125.214,127.56z"/>
	<path d="M136.254,127.605c0.773,0,1.421-0.218,1.943-0.653c0.523-0.437,0.806-1.001,0.849-1.693h1.067
		c-0.031,0.612-0.223,1.171-0.575,1.675s-0.821,0.898-1.405,1.183c-0.585,0.284-1.211,0.427-1.879,0.427
		c-1.317,0-2.361-0.458-3.131-1.373c-0.771-0.915-1.155-2.146-1.155-3.692v-0.334c0-0.989,0.173-1.864,0.52-2.626
		c0.346-0.76,0.843-1.348,1.489-1.762c0.646-0.415,1.402-0.622,2.268-0.622c1.101,0,2.008,0.328,2.723,0.983
		c0.714,0.655,1.096,1.519,1.146,2.588h-1.067c-0.05-0.785-0.333-1.419-0.849-1.901c-0.516-0.482-1.167-0.724-1.953-0.724
		c-1.002,0-1.78,0.361-2.333,1.086c-0.553,0.723-0.83,1.737-0.83,3.043v0.324c0,1.28,0.277,2.279,0.83,2.996
		C134.465,127.247,135.246,127.605,136.254,127.605z"/>
	<path d="M142.266,115.42c0-0.209,0.068-0.386,0.204-0.53c0.136-0.144,0.321-0.216,0.557-0.216c0.235,0,0.422,0.072,0.561,0.216
		c0.14,0.145,0.209,0.321,0.209,0.53s-0.069,0.385-0.209,0.525c-0.139,0.142-0.326,0.213-0.561,0.213
		c-0.235,0-0.421-0.071-0.557-0.213C142.334,115.805,142.266,115.629,142.266,115.42z M143.574,128.357h-1.113v-10.038h1.113
		V128.357z"/>
	<path d="M145.977,123.189c0-0.965,0.187-1.833,0.562-2.606c0.374-0.773,0.903-1.374,1.586-1.805
		c0.684-0.43,1.458-0.645,2.324-0.645c1.336,0,2.418,0.469,3.247,1.405c0.829,0.938,1.243,2.179,1.243,3.725v0.232
		c0,0.971-0.187,1.845-0.562,2.621c-0.374,0.776-0.901,1.374-1.582,1.795c-0.681,0.421-1.457,0.631-2.329,0.631
		c-1.33,0-2.411-0.469-3.242-1.405c-0.832-0.938-1.248-2.179-1.248-3.726V123.189z M147.09,123.496c0,1.2,0.311,2.185,0.933,2.955
		c0.621,0.77,1.436,1.154,2.444,1.154c1.002,0,1.813-0.385,2.436-1.154c0.621-0.771,0.932-1.786,0.932-3.048v-0.214
		c0-0.767-0.143-1.469-0.427-2.105c-0.285-0.637-0.684-1.13-1.197-1.479c-0.514-0.35-1.101-0.524-1.763-0.524
		c-0.99,0-1.797,0.389-2.421,1.164c-0.625,0.776-0.937,1.792-0.937,3.048V123.496z M151.553,114.219h1.345l-2.143,2.588
		l-0.974-0.004L151.553,114.219z"/>
	<path d="M161.786,115.42c0-0.209,0.068-0.386,0.204-0.53c0.136-0.144,0.321-0.216,0.557-0.216c0.235,0,0.422,0.072,0.561,0.216
		c0.14,0.145,0.209,0.321,0.209,0.53s-0.069,0.385-0.209,0.525c-0.139,0.142-0.326,0.213-0.561,0.213
		c-0.235,0-0.421-0.071-0.557-0.213C161.854,115.805,161.786,115.629,161.786,115.42z M163.094,128.357h-1.113v-10.038h1.113
		V128.357z"/>
	<path d="M177.065,128.357c-0.111-0.315-0.183-0.782-0.213-1.4c-0.39,0.507-0.886,0.898-1.489,1.173
		c-0.603,0.275-1.242,0.413-1.916,0.413c-0.965,0-1.746-0.27-2.342-0.807c-0.597-0.539-0.896-1.219-0.896-2.041
		c0-0.978,0.407-1.751,1.22-2.32c0.813-0.568,1.947-0.854,3.4-0.854h2.013v-1.141c0-0.718-0.221-1.281-0.664-1.693
		c-0.442-0.411-1.087-0.617-1.934-0.617c-0.773,0-1.414,0.198-1.92,0.594c-0.507,0.396-0.761,0.873-0.761,1.43l-1.113-0.01
		c0-0.798,0.371-1.489,1.113-2.073c0.742-0.585,1.654-0.877,2.737-0.877c1.119,0,2.002,0.28,2.649,0.84
		c0.646,0.56,0.979,1.341,0.997,2.343v4.75c0,0.971,0.102,1.697,0.306,2.18v0.111H177.065z M173.577,127.56
		c0.742,0,1.406-0.18,1.99-0.538c0.585-0.358,1.01-0.838,1.276-1.438v-2.209h-1.985c-1.107,0.013-1.973,0.216-2.598,0.608
		c-0.625,0.393-0.937,0.933-0.937,1.618c0,0.563,0.209,1.03,0.626,1.401C172.367,127.374,172.909,127.56,173.577,127.56z"/>
	<path d="M184.617,127.605c0.773,0,1.421-0.218,1.943-0.653c0.523-0.437,0.806-1.001,0.849-1.693h1.067
		c-0.031,0.612-0.223,1.171-0.575,1.675s-0.821,0.898-1.405,1.183c-0.585,0.284-1.211,0.427-1.879,0.427
		c-1.317,0-2.361-0.458-3.131-1.373c-0.771-0.915-1.155-2.146-1.155-3.692v-0.334c0-0.989,0.173-1.864,0.52-2.626
		c0.346-0.76,0.843-1.348,1.489-1.762c0.646-0.415,1.402-0.622,2.268-0.622c1.101,0,2.008,0.328,2.723,0.983
		c0.714,0.655,1.096,1.519,1.146,2.588h-1.067c-0.05-0.785-0.333-1.419-0.849-1.901c-0.516-0.482-1.167-0.724-1.953-0.724
		c-1.002,0-1.78,0.361-2.333,1.086c-0.553,0.723-0.83,1.737-0.83,3.043v0.324c0,1.28,0.277,2.279,0.83,2.996
		C182.828,127.247,183.609,127.605,184.617,127.605z"/>
	<path d="M192.419,115.75v2.569h2.078v0.909h-2.078v6.696c0,0.558,0.101,0.973,0.302,1.245c0.201,0.272,0.536,0.408,1.006,0.408
		c0.186,0,0.485-0.031,0.9-0.093l0.046,0.901c-0.291,0.104-0.687,0.156-1.188,0.156c-0.761,0-1.314-0.221-1.661-0.663
		c-0.347-0.442-0.52-1.094-0.52-1.953v-6.698h-1.846v-0.909h1.846v-2.569H192.419z"/>
	<path d="M203.255,127.086c-0.668,0.972-1.735,1.457-3.201,1.457c-1.07,0-1.883-0.311-2.44-0.933
		c-0.557-0.621-0.841-1.541-0.854-2.76v-6.531h1.104v6.392c0,1.912,0.773,2.867,2.319,2.867c1.608,0,2.625-0.665,3.052-1.994v-7.265
		h1.113v10.038h-1.076L203.255,127.086z"/>
	<path d="M213.572,128.357c-0.111-0.315-0.183-0.782-0.213-1.4c-0.39,0.507-0.886,0.898-1.489,1.173
		c-0.603,0.275-1.242,0.413-1.916,0.413c-0.965,0-1.746-0.27-2.342-0.807c-0.597-0.539-0.896-1.219-0.896-2.041
		c0-0.978,0.407-1.751,1.22-2.32c0.813-0.568,1.947-0.854,3.4-0.854h2.013v-1.141c0-0.718-0.221-1.281-0.664-1.693
		c-0.442-0.411-1.087-0.617-1.934-0.617c-0.773,0-1.414,0.198-1.92,0.594c-0.507,0.396-0.761,0.873-0.761,1.43l-1.113-0.01
		c0-0.798,0.371-1.489,1.113-2.073c0.742-0.585,1.654-0.877,2.737-0.877c1.119,0,2.002,0.28,2.649,0.84
		c0.646,0.56,0.979,1.341,0.997,2.343v4.75c0,0.971,0.102,1.697,0.306,2.18v0.111H213.572z M210.083,127.56
		c0.742,0,1.406-0.18,1.99-0.538c0.585-0.358,1.01-0.838,1.276-1.438v-2.209h-1.985c-1.107,0.013-1.973,0.216-2.598,0.608
		c-0.625,0.393-0.937,0.933-0.937,1.618c0,0.563,0.209,1.03,0.626,1.401C208.873,127.374,209.416,127.56,210.083,127.56z"/>
	<path d="M221.124,127.605c0.773,0,1.421-0.218,1.943-0.653c0.523-0.437,0.806-1.001,0.849-1.693h1.067
		c-0.031,0.612-0.223,1.171-0.575,1.675s-0.821,0.898-1.405,1.183c-0.585,0.284-1.211,0.427-1.879,0.427
		c-1.317,0-2.361-0.458-3.131-1.373c-0.771-0.915-1.155-2.146-1.155-3.692v-0.334c0-0.989,0.173-1.864,0.52-2.626
		c0.346-0.76,0.843-1.348,1.489-1.762c0.646-0.415,1.402-0.622,2.268-0.622c1.101,0,2.008,0.328,2.723,0.983
		c0.714,0.655,1.096,1.519,1.146,2.588h-1.067c-0.05-0.785-0.333-1.419-0.849-1.901c-0.516-0.482-1.167-0.724-1.953-0.724
		c-1.002,0-1.78,0.361-2.333,1.086c-0.553,0.723-0.83,1.737-0.83,3.043v0.324c0,1.28,0.277,2.279,0.83,2.996
		C219.334,127.247,220.115,127.605,221.124,127.605z"/>
	<path d="M227.135,115.42c0-0.209,0.068-0.386,0.204-0.53c0.136-0.144,0.321-0.216,0.557-0.216c0.235,0,0.422,0.072,0.561,0.216
		c0.14,0.145,0.209,0.321,0.209,0.53s-0.069,0.385-0.209,0.525c-0.139,0.142-0.326,0.213-0.561,0.213
		c-0.235,0-0.421-0.071-0.557-0.213C227.203,115.805,227.135,115.629,227.135,115.42z M228.443,128.357h-1.113v-10.038h1.113
		V128.357z"/>
	<path d="M230.846,123.189c0-0.965,0.187-1.833,0.562-2.606c0.374-0.773,0.903-1.374,1.586-1.805
		c0.684-0.43,1.458-0.645,2.324-0.645c1.336,0,2.418,0.469,3.247,1.405c0.829,0.938,1.243,2.179,1.243,3.725v0.232
		c0,0.971-0.187,1.845-0.562,2.621c-0.374,0.776-0.901,1.374-1.582,1.795c-0.681,0.421-1.457,0.631-2.329,0.631
		c-1.33,0-2.411-0.469-3.242-1.405c-0.832-0.938-1.248-2.179-1.248-3.726V123.189z M231.959,123.496c0,1.2,0.311,2.185,0.933,2.955
		c0.621,0.77,1.436,1.154,2.444,1.154c1.002,0,1.813-0.385,2.436-1.154c0.621-0.771,0.932-1.786,0.932-3.048v-0.214
		c0-0.767-0.143-1.469-0.427-2.105c-0.285-0.637-0.684-1.13-1.197-1.479c-0.514-0.35-1.101-0.524-1.763-0.524
		c-0.99,0-1.797,0.389-2.421,1.164c-0.625,0.776-0.937,1.792-0.937,3.048V123.496z"/>
	<path d="M243.157,118.319l0.037,1.716c0.377-0.618,0.847-1.09,1.41-1.414c0.563-0.325,1.184-0.487,1.865-0.487
		c1.076,0,1.877,0.303,2.403,0.909c0.525,0.606,0.792,1.516,0.798,2.728v6.587h-1.104v-6.596c-0.006-0.897-0.196-1.565-0.571-2.004
		c-0.374-0.439-0.973-0.659-1.795-0.659c-0.687,0-1.294,0.215-1.823,0.645c-0.528,0.431-0.92,1.01-1.173,1.739v6.875H242.1v-10.038
		H243.157z"/>
	<path d="M258.549,125.807c0-0.551-0.222-0.993-0.664-1.327c-0.441-0.334-1.108-0.595-1.999-0.784
		c-0.891-0.188-1.582-0.404-2.074-0.649c-0.491-0.244-0.856-0.542-1.095-0.896c-0.238-0.352-0.357-0.779-0.357-1.279
		c0-0.792,0.331-1.446,0.993-1.963c0.662-0.516,1.509-0.774,2.542-0.774c1.119,0,2.017,0.277,2.695,0.83
		c0.678,0.554,1.016,1.276,1.016,2.167h-1.113c0-0.588-0.246-1.076-0.736-1.467c-0.492-0.389-1.113-0.584-1.861-0.584
		c-0.73,0-1.316,0.162-1.758,0.487c-0.442,0.324-0.664,0.747-0.664,1.267c0,0.5,0.184,0.889,0.552,1.164
		c0.368,0.275,1.039,0.527,2.013,0.756c0.975,0.229,1.704,0.473,2.19,0.732c0.485,0.26,0.846,0.572,1.08,0.938
		c0.235,0.365,0.354,0.807,0.354,1.326c0,0.848-0.342,1.525-1.025,2.032s-1.576,0.761-2.677,0.761c-1.169,0-2.117-0.283-2.843-0.849
		c-0.727-0.566-1.09-1.282-1.09-2.147h1.113c0.043,0.648,0.317,1.154,0.821,1.517c0.504,0.361,1.17,0.542,2,0.542
		c0.772,0,1.397-0.17,1.874-0.51S258.549,126.326,258.549,125.807z"/>
	<path d="M273.113,128.357c-0.111-0.315-0.182-0.782-0.213-1.4c-0.39,0.507-0.886,0.898-1.489,1.173
		c-0.603,0.275-1.241,0.413-1.915,0.413c-0.965,0-1.746-0.27-2.343-0.807c-0.597-0.539-0.896-1.219-0.896-2.041
		c0-0.978,0.406-1.751,1.22-2.32c0.813-0.568,1.946-0.854,3.4-0.854h2.013v-1.141c0-0.718-0.221-1.281-0.663-1.693
		c-0.442-0.411-1.087-0.617-1.935-0.617c-0.773,0-1.413,0.198-1.92,0.594c-0.508,0.396-0.761,0.873-0.761,1.43l-1.113-0.01
		c0-0.798,0.371-1.489,1.113-2.073c0.742-0.585,1.654-0.877,2.737-0.877c1.119,0,2.002,0.28,2.648,0.84s0.979,1.341,0.997,2.343
		v4.75c0,0.971,0.103,1.697,0.306,2.18v0.111H273.113z M269.625,127.56c0.742,0,1.406-0.18,1.99-0.538
		c0.585-0.358,1.01-0.838,1.275-1.438v-2.209h-1.984c-1.107,0.013-1.974,0.216-2.598,0.608c-0.625,0.393-0.938,0.933-0.938,1.618
		c0,0.563,0.209,1.03,0.626,1.401C268.415,127.374,268.957,127.56,269.625,127.56z"/>
	<path d="M282.818,128.357h-1.113v-14.25h1.113V128.357z"/>
	<path d="M286.482,115.416l-0.158,2.829h-0.834c0.03-1.831,0.046-3.21,0.046-4.138h0.946V115.416z"/>
	<path d="M292.401,128.543c-0.854,0-1.625-0.21-2.315-0.631c-0.689-0.421-1.226-1.007-1.609-1.758
		c-0.383-0.752-0.574-1.595-0.574-2.528v-0.399c0-0.965,0.187-1.833,0.561-2.606c0.375-0.773,0.896-1.381,1.563-1.823
		c0.668-0.441,1.392-0.663,2.171-0.663c1.219,0,2.186,0.416,2.898,1.248c0.715,0.832,1.072,1.968,1.072,3.409v0.621h-7.162v0.214
		c0,1.138,0.326,2.086,0.979,2.844s1.474,1.136,2.463,1.136c0.594,0,1.119-0.107,1.572-0.324c0.455-0.217,0.868-0.563,1.239-1.039
		l0.696,0.529C295.139,127.952,293.953,128.543,292.401,128.543z M292.197,119.08c-0.835,0-1.539,0.307-2.111,0.918
		c-0.571,0.613-0.92,1.436-1.043,2.469h6.021v-0.121c-0.031-0.965-0.307-1.75-0.826-2.356S293.038,119.08,292.197,119.08z"/>
	<path d="M304.342,125.807c0-0.551-0.222-0.993-0.664-1.327c-0.441-0.334-1.108-0.595-1.999-0.784
		c-0.891-0.188-1.581-0.404-2.073-0.649c-0.492-0.244-0.857-0.542-1.096-0.896c-0.237-0.352-0.356-0.779-0.356-1.279
		c0-0.792,0.331-1.446,0.993-1.963c0.661-0.516,1.508-0.774,2.541-0.774c1.119,0,2.018,0.277,2.695,0.83
		c0.678,0.554,1.016,1.276,1.016,2.167h-1.113c0-0.588-0.246-1.076-0.736-1.467c-0.492-0.389-1.113-0.584-1.861-0.584
		c-0.729,0-1.315,0.162-1.758,0.487c-0.441,0.324-0.663,0.747-0.663,1.267c0,0.5,0.185,0.889,0.552,1.164
		c0.368,0.275,1.039,0.527,2.014,0.756s1.703,0.473,2.189,0.732c0.485,0.26,0.846,0.572,1.08,0.938
		c0.235,0.365,0.354,0.807,0.354,1.326c0,0.848-0.342,1.525-1.025,2.032s-1.576,0.761-2.677,0.761c-1.169,0-2.116-0.283-2.843-0.849
		c-0.728-0.566-1.091-1.282-1.091-2.147h1.113c0.043,0.648,0.317,1.154,0.821,1.517c0.504,0.361,1.17,0.542,1.999,0.542
		c0.772,0,1.397-0.17,1.874-0.51S304.342,126.326,304.342,125.807z"/>
	<path d="M316.021,123.44c0,1.564-0.347,2.807-1.039,3.725c-0.693,0.919-1.621,1.378-2.783,1.378c-1.373,0-2.425-0.482-3.154-1.447
		v5.121h-1.104v-13.897h1.029l0.056,1.419c0.724-1.069,1.772-1.604,3.146-1.604c1.199,0,2.141,0.454,2.824,1.364
		c0.684,0.908,1.025,2.17,1.025,3.785V123.44z M314.908,123.246c0-1.281-0.264-2.292-0.789-3.034s-1.258-1.113-2.198-1.113
		c-0.681,0-1.265,0.164-1.753,0.491c-0.489,0.328-0.863,0.805-1.123,1.43v4.814c0.266,0.575,0.646,1.015,1.141,1.317
		c0.495,0.303,1.08,0.454,1.754,0.454c0.934,0,1.662-0.372,2.185-1.117S314.908,124.662,314.908,123.246z"/>
	<path d="M324.816,128.357c-0.111-0.315-0.183-0.782-0.213-1.4c-0.391,0.507-0.887,0.898-1.49,1.173
		c-0.602,0.275-1.241,0.413-1.915,0.413c-0.965,0-1.745-0.27-2.343-0.807c-0.597-0.539-0.895-1.219-0.895-2.041
		c0-0.978,0.406-1.751,1.219-2.32c0.814-0.568,1.947-0.854,3.4-0.854h2.014v-1.141c0-0.718-0.221-1.281-0.664-1.693
		c-0.441-0.411-1.086-0.617-1.934-0.617c-0.773,0-1.414,0.198-1.92,0.594c-0.508,0.396-0.762,0.873-0.762,1.43l-1.113-0.01
		c0-0.798,0.371-1.489,1.113-2.073c0.742-0.585,1.654-0.877,2.737-0.877c1.119,0,2.003,0.28,2.649,0.84
		c0.646,0.56,0.979,1.341,0.996,2.343v4.75c0,0.971,0.103,1.697,0.307,2.18v0.111H324.816z M321.328,127.56
		c0.742,0,1.406-0.18,1.99-0.538s1.01-0.838,1.275-1.438v-2.209h-1.985c-1.107,0.013-1.974,0.216-2.598,0.608
		c-0.625,0.393-0.937,0.933-0.937,1.618c0,0.563,0.209,1.03,0.625,1.401C320.117,127.374,320.66,127.56,321.328,127.56z"/>
	<path d="M328.592,115.42c0-0.209,0.068-0.386,0.205-0.53c0.135-0.144,0.32-0.216,0.557-0.216c0.234,0,0.422,0.072,0.561,0.216
		c0.14,0.145,0.209,0.321,0.209,0.53s-0.069,0.385-0.209,0.525c-0.139,0.142-0.326,0.213-0.561,0.213
		c-0.236,0-0.422-0.071-0.557-0.213C328.66,115.805,328.592,115.629,328.592,115.42z M329.9,128.357h-1.113v-10.038h1.113V128.357z"
		/>
	<path d="M345.607,123.44c0,1.564-0.348,2.807-1.039,3.725c-0.693,0.919-1.621,1.378-2.783,1.378c-1.373,0-2.426-0.482-3.154-1.447
		v5.121h-1.104v-13.897h1.03l0.055,1.419c0.725-1.069,1.772-1.604,3.146-1.604c1.2,0,2.142,0.454,2.825,1.364
		c0.684,0.908,1.025,2.17,1.025,3.785V123.44z M344.494,123.246c0-1.281-0.264-2.292-0.789-3.034s-1.259-1.113-2.199-1.113
		c-0.68,0-1.265,0.164-1.753,0.491c-0.489,0.328-0.862,0.805-1.122,1.43v4.814c0.266,0.575,0.646,1.015,1.141,1.317
		c0.494,0.303,1.079,0.454,1.754,0.454c0.934,0,1.662-0.372,2.184-1.117C344.232,125.743,344.494,124.662,344.494,123.246z"/>
	<path d="M354.522,127.086c-0.668,0.972-1.735,1.457-3.2,1.457c-1.07,0-1.884-0.311-2.44-0.933c-0.557-0.621-0.841-1.541-0.854-2.76
		v-6.531h1.104v6.392c0,1.912,0.772,2.867,2.318,2.867c1.608,0,2.626-0.665,3.053-1.994v-7.265h1.113v10.038h-1.076L354.522,127.086
		z M353.047,114.219h1.346l-2.143,2.588l-0.975-0.004L353.047,114.219z"/>
	<path d="M366.582,123.44c0,1.564-0.346,2.807-1.039,3.725c-0.691,0.919-1.623,1.378-2.791,1.378c-1.398,0-2.456-0.52-3.174-1.559
		l-0.046,1.373h-1.039v-14.25h1.104v5.668c0.705-1.094,1.75-1.642,3.135-1.642c1.188,0,2.127,0.453,2.816,1.359
		s1.033,2.166,1.033,3.78V123.44z M365.469,123.246c0-1.324-0.256-2.346-0.77-3.066s-1.236-1.081-2.17-1.081
		c-0.712,0-1.314,0.175-1.81,0.524s-0.869,0.861-1.122,1.535v4.527c0.557,1.262,1.539,1.893,2.949,1.893
		c0.916,0,1.631-0.361,2.148-1.086C365.211,125.77,365.469,124.687,365.469,123.246z"/>
	<path d="M370.275,128.357h-1.113v-14.25h1.113V128.357z"/>
	<path d="M373.227,115.42c0-0.209,0.066-0.386,0.203-0.53c0.137-0.144,0.322-0.216,0.557-0.216s0.422,0.072,0.561,0.216
		c0.141,0.145,0.209,0.321,0.209,0.53s-0.068,0.385-0.209,0.525c-0.139,0.142-0.326,0.213-0.561,0.213s-0.42-0.071-0.557-0.213
		C373.293,115.805,373.227,115.629,373.227,115.42z M374.533,128.357h-1.113v-10.038h1.113V128.357z"/>
	<path d="M381.26,127.605c0.773,0,1.422-0.218,1.943-0.653c0.523-0.437,0.807-1.001,0.85-1.693h1.066
		c-0.031,0.612-0.223,1.171-0.574,1.675c-0.354,0.504-0.822,0.898-1.406,1.183s-1.211,0.427-1.879,0.427
		c-1.316,0-2.361-0.458-3.131-1.373s-1.154-2.146-1.154-3.692v-0.334c0-0.989,0.172-1.864,0.52-2.626
		c0.346-0.76,0.842-1.348,1.488-1.762c0.646-0.415,1.402-0.622,2.268-0.622c1.102,0,2.01,0.328,2.725,0.983
		c0.713,0.655,1.096,1.519,1.145,2.588h-1.066c-0.049-0.785-0.332-1.419-0.85-1.901c-0.516-0.482-1.166-0.724-1.953-0.724
		c-1.002,0-1.779,0.361-2.332,1.086c-0.555,0.723-0.83,1.737-0.83,3.043v0.324c0,1.28,0.275,2.279,0.83,2.996
		C379.471,127.247,380.252,127.605,381.26,127.605z"/>
	<path d="M391.893,115.42c0-0.209,0.066-0.386,0.203-0.53c0.137-0.144,0.322-0.216,0.557-0.216s0.422,0.072,0.561,0.216
		c0.141,0.145,0.209,0.321,0.209,0.53s-0.068,0.385-0.209,0.525c-0.139,0.142-0.326,0.213-0.561,0.213s-0.42-0.071-0.557-0.213
		C391.959,115.805,391.893,115.629,391.893,115.42z M393.199,128.357h-1.113v-10.038h1.113V128.357z"/>
	<path d="M404.721,128.543c-0.854,0-1.625-0.21-2.314-0.631s-1.225-1.007-1.609-1.758c-0.383-0.752-0.574-1.595-0.574-2.528v-0.399
		c0-0.965,0.186-1.833,0.561-2.606s0.895-1.381,1.563-1.823c0.668-0.441,1.393-0.663,2.172-0.663c1.219,0,2.186,0.416,2.898,1.248
		c0.715,0.832,1.072,1.968,1.072,3.409v0.621h-7.162v0.214c0,1.138,0.326,2.086,0.979,2.844s1.475,1.136,2.463,1.136
		c0.594,0,1.119-0.107,1.572-0.324c0.455-0.217,0.867-0.563,1.238-1.039l0.697,0.529
		C407.459,127.952,406.273,128.543,404.721,128.543z M404.518,119.08c-0.836,0-1.539,0.307-2.111,0.918
		c-0.572,0.613-0.92,1.436-1.043,2.469h6.021v-0.121c-0.031-0.965-0.307-1.75-0.826-2.356S405.359,119.08,404.518,119.08z"/>
	<path d="M410.205,123.246c0-1.571,0.348-2.816,1.045-3.734c0.695-0.919,1.646-1.378,2.852-1.378c1.355,0,2.385,0.517,3.09,1.55
		l0.055-1.364h1.039v13.897h-1.113v-5.103c-0.729,0.952-1.758,1.429-3.088,1.429c-1.176,0-2.115-0.464-2.82-1.392
		s-1.059-2.181-1.059-3.757V123.246z M411.328,123.44c0,1.299,0.262,2.318,0.783,3.057c0.523,0.739,1.248,1.108,2.176,1.108
		c1.33,0,2.291-0.578,2.885-1.734v-4.917c-0.277-0.6-0.662-1.063-1.154-1.387c-0.492-0.325-1.063-0.487-1.711-0.487
		c-0.934,0-1.664,0.37-2.189,1.108C411.592,120.928,411.328,122.012,411.328,123.44z"/>
	<path d="M427.701,127.086c-0.668,0.972-1.734,1.457-3.201,1.457c-1.068,0-1.883-0.311-2.439-0.933
		c-0.557-0.621-0.84-1.541-0.854-2.76v-6.531h1.104v6.392c0,1.912,0.773,2.867,2.32,2.867c1.607,0,2.625-0.665,3.053-1.994v-7.265
		h1.113v10.038h-1.076L427.701,127.086z"/>
	<path d="M431.617,115.42c0-0.209,0.068-0.386,0.203-0.53c0.137-0.144,0.322-0.216,0.557-0.216c0.236,0,0.424,0.072,0.563,0.216
		c0.139,0.145,0.209,0.321,0.209,0.53s-0.07,0.385-0.209,0.525c-0.139,0.142-0.326,0.213-0.563,0.213
		c-0.234,0-0.42-0.071-0.557-0.213C431.686,115.805,431.617,115.629,431.617,115.42z M432.926,128.357h-1.113v-10.038h1.113V128.357
		z"/>
	<path d="M444.012,123.44c0,1.564-0.348,2.807-1.039,3.725c-0.693,0.919-1.621,1.378-2.783,1.378c-1.373,0-2.426-0.482-3.154-1.447
		v5.121h-1.105v-13.897h1.031l0.055,1.419c0.725-1.069,1.771-1.604,3.145-1.604c1.201,0,2.143,0.454,2.826,1.364
		c0.684,0.908,1.025,2.17,1.025,3.785V123.44z M442.898,123.246c0-1.281-0.264-2.292-0.789-3.034s-1.258-1.113-2.199-1.113
		c-0.68,0-1.264,0.164-1.754,0.491c-0.488,0.328-0.861,0.805-1.121,1.43v4.814c0.266,0.575,0.646,1.015,1.141,1.317
		s1.08,0.454,1.754,0.454c0.934,0,1.662-0.372,2.184-1.117C442.637,125.743,442.898,124.662,442.898,123.246z"/>
	<path d="M452.807,128.357c-0.111-0.315-0.182-0.782-0.213-1.4c-0.391,0.507-0.887,0.898-1.49,1.173
		c-0.602,0.275-1.24,0.413-1.914,0.413c-0.965,0-1.746-0.27-2.344-0.807c-0.598-0.539-0.895-1.219-0.895-2.041
		c0-0.978,0.406-1.751,1.219-2.32c0.814-0.568,1.947-0.854,3.4-0.854h2.014v-1.141c0-0.718-0.221-1.281-0.664-1.693
		c-0.441-0.411-1.086-0.617-1.934-0.617c-0.773,0-1.414,0.198-1.92,0.594c-0.508,0.396-0.762,0.873-0.762,1.43l-1.113-0.01
		c0-0.798,0.371-1.489,1.113-2.073c0.742-0.585,1.654-0.877,2.738-0.877c1.119,0,2.002,0.28,2.648,0.84
		c0.645,0.56,0.979,1.341,0.996,2.343v4.75c0,0.971,0.104,1.697,0.307,2.18v0.111H452.807z M449.318,127.56
		c0.742,0,1.406-0.18,1.99-0.538s1.01-0.838,1.275-1.438v-2.209H450.6c-1.107,0.013-1.975,0.216-2.598,0.608
		c-0.625,0.393-0.938,0.933-0.938,1.618c0,0.563,0.209,1.03,0.625,1.401C448.107,127.374,448.65,127.56,449.318,127.56z"/>
	<path d="M457.658,118.319l0.037,1.633c0.371-0.606,0.834-1.061,1.391-1.364c0.557-0.303,1.176-0.454,1.855-0.454
		c1.584,0,2.59,0.649,3.016,1.948c0.359-0.625,0.838-1.105,1.438-1.442c0.602-0.337,1.262-0.506,1.986-0.506
		c2.152,0,3.25,1.175,3.293,3.525v6.698h-1.113v-6.615c-0.006-0.896-0.199-1.562-0.58-1.994c-0.379-0.433-1-0.649-1.859-0.649
		c-0.799,0.013-1.473,0.271-2.023,0.774c-0.549,0.505-0.855,1.118-0.918,1.842v6.643h-1.113v-6.698
		c-0.006-0.859-0.209-1.501-0.607-1.925s-1.012-0.636-1.842-0.636c-0.699,0-1.299,0.199-1.799,0.599
		c-0.502,0.398-0.873,0.991-1.113,1.776v6.884h-1.113v-10.038H457.658z"/>
	<path d="M477.373,128.543c-0.854,0-1.625-0.21-2.314-0.631s-1.227-1.007-1.609-1.758c-0.385-0.752-0.576-1.595-0.576-2.528v-0.399
		c0-0.965,0.188-1.833,0.563-2.606c0.373-0.773,0.895-1.381,1.563-1.823c0.668-0.441,1.393-0.663,2.172-0.663
		c1.217,0,2.184,0.416,2.898,1.248s1.072,1.968,1.072,3.409v0.621h-7.162v0.214c0,1.138,0.324,2.086,0.979,2.844
		c0.652,0.758,1.473,1.136,2.463,1.136c0.594,0,1.117-0.107,1.572-0.324s0.867-0.563,1.238-1.039l0.695,0.529
		C480.109,127.952,478.926,128.543,477.373,128.543z M477.17,119.08c-0.836,0-1.539,0.307-2.111,0.918
		c-0.572,0.613-0.92,1.436-1.043,2.469h6.02v-0.121c-0.031-0.965-0.305-1.75-0.824-2.356S478.01,119.08,477.17,119.08z"/>
	<path d="M484.359,118.319l0.037,1.716c0.377-0.618,0.848-1.09,1.41-1.414c0.563-0.325,1.184-0.487,1.863-0.487
		c1.076,0,1.879,0.303,2.404,0.909s0.791,1.516,0.797,2.728v6.587h-1.104v-6.596c-0.006-0.897-0.197-1.565-0.57-2.004
		c-0.375-0.439-0.973-0.659-1.795-0.659c-0.688,0-1.295,0.215-1.824,0.645c-0.527,0.431-0.92,1.01-1.174,1.739v6.875h-1.104v-10.038
		H484.359z"/>
	<path d="M495.465,115.75v2.569h2.078v0.909h-2.078v6.696c0,0.558,0.1,0.973,0.301,1.245s0.537,0.408,1.006,0.408
		c0.186,0,0.486-0.031,0.9-0.093l0.047,0.901c-0.291,0.104-0.688,0.156-1.188,0.156c-0.762,0-1.314-0.221-1.66-0.663
		c-0.348-0.442-0.52-1.094-0.52-1.953v-6.698h-1.848v-0.909h1.848v-2.569H495.465z"/>
	<path d="M505.854,125.807c0-0.551-0.221-0.993-0.662-1.327c-0.443-0.334-1.109-0.595-2-0.784c-0.891-0.188-1.582-0.404-2.074-0.649
		c-0.49-0.244-0.855-0.542-1.094-0.896c-0.238-0.352-0.357-0.779-0.357-1.279c0-0.792,0.33-1.446,0.992-1.963
		c0.662-0.516,1.51-0.774,2.543-0.774c1.119,0,2.018,0.277,2.695,0.83c0.676,0.554,1.016,1.276,1.016,2.167h-1.113
		c0-0.588-0.246-1.076-0.738-1.467c-0.492-0.389-1.111-0.584-1.859-0.584c-0.73,0-1.316,0.162-1.758,0.487
		c-0.443,0.324-0.664,0.747-0.664,1.267c0,0.5,0.184,0.889,0.553,1.164c0.367,0.275,1.039,0.527,2.012,0.756
		c0.975,0.229,1.705,0.473,2.189,0.732c0.486,0.26,0.846,0.572,1.082,0.938c0.234,0.365,0.352,0.807,0.352,1.326
		c0,0.848-0.342,1.525-1.025,2.032s-1.574,0.761-2.676,0.761c-1.17,0-2.117-0.283-2.844-0.849c-0.727-0.566-1.09-1.282-1.09-2.147
		h1.113c0.043,0.648,0.316,1.154,0.82,1.517c0.504,0.361,1.172,0.542,2,0.542c0.773,0,1.398-0.17,1.873-0.51
		C505.615,126.756,505.854,126.326,505.854,125.807z"/>
</g>
</svg>
