<?xml version="1.0" encoding="utf-8"?>
<!DOCTYPE svg PUBLIC "-//W3C//DTD SVG 1.1//EN" "http://www.w3.org/Graphics/SVG/1.1/DTD/svg11.dtd">
<svg version="1.1" id="Capa_1" xmlns="http://www.w3.org/2000/svg" xmlns:xlink="http://www.w3.org/1999/xlink" x="0px" y="0px"
	 width="60px" height="90px" viewBox="0 0 60 90" enable-background="new 0 0 60 90" xml:space="preserve">
<g>
	<path fill="#FFFF00" d="M45.935,46.378l-3.336,0.272c0.037,0.064,0.098,0.152,0.136,0.24l3.343-0.296
		C46.037,46.531,45.996,46.442,45.935,46.378z M30.082,83.82c-0.56,0.104-1.15,0.154-1.745,0.186
		c0.498,0.023,1.002,0.036,1.506,0.036c0.595,0,1.185-0.017,1.769-0.05C31.107,83.963,30.581,83.873,30.082,83.82z"/>
	<path fill="#FFFF00" d="M30.082,83.82c-0.56,0.104-1.15,0.154-1.745,0.186c0.498,0.023,1.002,0.036,1.506,0.036
		c0.595,0,1.185-0.017,1.769-0.05C31.107,83.963,30.581,83.873,30.082,83.82z"/>
	<path fill="#FFFF00" d="M45.935,46.378l-3.336,0.272c0.037,0.064,0.098,0.152,0.136,0.241l3.343-0.296
		C46.037,46.531,45.996,46.442,45.935,46.378z"/>
	<path fill="#00A0C6" d="M48.871,34.872c1.959,2.27,3.559,4.87,4.729,7.743l-1.568,0.129c0.592,1.025,1.106,2.111,1.568,3.229
		l-7.524,0.622c0.067,0.098,0.111,0.197,0.177,0.298l10.865-0.92C55.322,41.555,52.47,37.742,48.871,34.872z"/>
	<path fill="#008837" d="M52.031,42.744l-2.899,0.242c0.547,0.967,1.025,1.962,1.434,2.987l-4.631,0.38
		c0.063,0.089,0.103,0.177,0.141,0.242l7.524-0.622C53.138,44.855,52.623,43.769,52.031,42.744z"/>
	<path fill="#00A0C6" d="M28.558,39.017c-7.209,0.838-12.94,7.565-13.629,16.033c0.469,5.78,3.302,10.768,7.355,13.593
		c-2.413-3.158-3.914-7.331-3.914-11.928c0-8.491,5.112-15.623,11.938-17.365C29.727,39.209,29.159,39.098,28.558,39.017z"/>
	<path fill="#008837" d="M27.032,38.949c-3.308,0-6.369,1.233-8.854,3.329c-2.071,3.041-3.305,6.878-3.305,11.082
		c0,0.553,0.019,1.125,0.054,1.689c0.69-8.465,6.421-15.192,13.63-16.03C28.062,38.972,27.538,38.949,27.032,38.949z"/>
	<path fill="#00A0C6" d="M58.585,54.854H55.09c-0.003,0.096-0.008,0.167-0.011,0.262c0.024,0.547,0.04,1.072,0.04,1.601
		c0,14.463-10.101,26.315-23.508,27.275c0.586,0.033,1.156,0.05,1.749,0.05c14.266,0,25.278-12.229,25.278-27.325
		C58.639,56.09,58.617,55.472,58.585,54.854z"/>
	<path fill="#008837" d="M55.08,55.116c-0.447,7.569-3.658,14.298-8.639,18.946c-3.943,5.271-9.692,8.891-16.358,9.758
		c0.498,0.053,1.024,0.143,1.53,0.174C44.994,83.032,55.12,71.182,55.12,56.716C55.12,56.188,55.104,55.664,55.08,55.116z"/>
	<polygon fill="#00A0C6" points="33.611,4.358 32.102,4.358 37.901,14.203 35.914,14.203 37.901,17.583 41.419,17.583 	"/>
	<polygon fill="#008837" points="35.914,14.201 32.884,14.201 34.892,17.583 33.611,17.583 37.901,17.583 	"/>
	<path fill="#F0047F" d="M9.676,36.296C4.343,41.301,1,48.604,1,56.716c0,15.101,11.566,27.326,25.833,27.326
		c0.505,0,1.006-0.013,1.504-0.036C14.782,83.193,4.031,71.287,4.031,56.716c0-0.549,0.014-1.122,0.042-1.666
		c-0.028-0.569-0.042-1.14-0.042-1.69C4.031,46.903,6.141,40.963,9.676,36.296z"/>
	<path fill="#FF0000" d="M4.072,55.05c-0.028,0.545-0.041,1.116-0.041,1.667c0,14.568,10.748,26.477,24.307,27.289
		c0.593-0.029,1.183-0.078,1.744-0.188c-6.21-0.813-11.725-3.979-15.751-8.613C8.469,70.525,4.549,63.275,4.072,55.05z"/>
	<path fill="#F0047F" d="M31.834,39.066c-0.529,0.056-1.032,0.159-1.526,0.286c3.904,0.998,7.238,3.766,9.393,7.539l2.896-0.242
		C40.166,42.523,36.286,39.668,31.834,39.066z"/>
	<path fill="#FF0000" d="M33.584,38.949c-0.598,0-1.189,0.031-1.748,0.118c4.449,0.602,8.33,3.457,10.761,7.582l3.336-0.271
		c-0.648-1.078-1.402-2.062-2.247-2.956l-0.953,0.088c-0.431-0.732-0.875-1.434-1.374-2.077
		C39.079,39.849,36.418,38.949,33.584,38.949z"/>
	<rect x="27.971" y="54.854" fill="#F0047F" width="3.035" height="8.704"/>
	<polygon fill="#FF0000" points="31.005,54.854 31.005,54.854 31.005,63.558 34.523,63.558 34.523,60.2 31.005,60.2 	"/>
	<path fill="#F0047F" d="M42.474,63.56h-1.698c-0.502,1.752-1.214,3.347-2.135,4.741C40.216,67.056,41.503,65.452,42.474,63.56z"/>
	<path fill="#13007C" d="M30.064,38.949c-0.506,0-1.009,0.023-1.504,0.07c0.599,0.079,1.167,0.191,1.748,0.333
		c0.494-0.127,0.997-0.229,1.526-0.286C31.251,38.98,30.661,38.949,30.064,38.949z"/>
	<path d="M30.064,35.567c-4.807,0-9.12,2.633-11.886,6.711c2.487-2.098,5.547-3.33,8.855-3.33c0.529,0,1.03,0.023,1.527,0.07
		c0.494-0.046,0.998-0.07,1.504-0.07c0.597,0,1.188,0.031,1.77,0.118c0.561-0.087,1.151-0.118,1.748-0.118
		c2.836,0,5.497,0.9,7.779,2.484C38.573,37.842,34.548,35.567,30.064,35.567z M49.133,42.984l-5.444,0.438
		c0.843,0.896,1.597,1.878,2.246,2.956l4.633-0.407C50.159,44.948,49.677,43.952,49.133,42.984z M43.809,60.2h-9.284v3.358h6.252
		h1.696C43.004,62.524,43.457,61.402,43.809,60.2z M46.441,74.063c-4.398,4.121-10.161,6.598-16.597,6.598
		c-5.809,0-11.18-2.021-15.513-5.455c4.024,4.637,9.541,7.803,15.75,8.613C36.75,82.953,42.498,79.336,46.441,74.063z"/>
	<path d="M46.441,74.063c-4.398,4.121-10.161,6.598-16.597,6.598c-5.809,0-11.18-2.021-15.513-5.455
		c4.024,4.637,9.541,7.803,15.75,8.613C36.75,82.953,42.498,79.336,46.441,74.063z"/>
	<path d="M43.808,60.2h-9.283v3.358h6.252h1.696C43.004,62.524,43.457,61.402,43.808,60.2z"/>
	<path d="M49.133,42.984l-5.444,0.438c0.843,0.896,1.597,1.878,2.246,2.956l4.633-0.407C50.159,44.948,49.677,43.952,49.133,42.984z
		"/>
	<path d="M30.064,35.567c-4.807,0-9.12,2.633-11.886,6.711c2.487-2.098,5.547-3.33,8.855-3.33c0.529,0,1.03,0.023,1.527,0.07
		c0.495-0.046,0.998-0.07,1.504-0.07c0.597,0,1.188,0.031,1.77,0.118c0.561-0.087,1.151-0.118,1.748-0.118
		c2.836,0,5.497,0.9,7.779,2.484C38.573,37.843,34.548,35.567,30.064,35.567z"/>
	<polygon fill="#F0047F" points="20.557,4.358 14.27,4.358 27.083,17.583 30.093,17.583 17.278,4.358 	"/>
	<polygon fill="#FF0000" points="20.557,4.358 17.278,4.358 30.093,17.583 33.611,17.583 30.335,14.203 30.093,14.203 	"/>
	<polygon points="32.882,14.201 30.335,14.201 33.611,17.583 34.891,17.583 	"/>
	<path fill="#FFFF00" d="M29.843,26.035c-8.165,0-15.43,4.011-20.167,10.261c4.553-4.283,10.577-6.879,17.159-6.879
		c0.503,0,1.006,0.013,1.504,0.036c0.498-0.023,1-0.036,1.504-0.036c0.595,0,1.185,0.017,1.77,0.05
		c0.585-0.033,1.155-0.05,1.748-0.05c5.828,0,11.2,2.02,15.51,5.457C44.166,29.446,37.379,26.035,29.843,26.035z M55.067,51.472
		H44.654H31.005v3.382h10.617h10.411h3.058c0.02-0.495,0.029-0.993,0.029-1.495C55.12,52.734,55.098,52.092,55.067,51.472z
		 M38.641,68.301c-2.249,1.799-5.132,2.828-8.577,2.828c-2.834,0-5.495-0.895-7.78-2.486c2.135,2.734,4.967,4.699,8.173,5.521
		C34.007,73.314,36.763,71.232,38.641,68.301z"/>
	<path fill="#FFFF00" d="M38.641,68.301c-2.249,1.799-5.132,2.828-8.577,2.828c-2.834,0-5.495-0.895-7.78-2.486
		c2.135,2.734,4.967,4.699,8.173,5.521C34.007,73.314,36.763,71.232,38.641,68.301z"/>
	<path fill="#FFFF00" d="M55.067,51.472H44.654H31.005v3.382h10.617h10.411h3.058c0.02-0.495,0.029-0.993,0.029-1.494
		C55.12,52.734,55.098,52.092,55.067,51.472z"/>
	<path fill="#FFFF00" d="M29.843,26.035c-8.165,0-15.43,4.011-20.167,10.261c4.553-4.283,10.576-6.879,17.159-6.879
		c0.503,0,1.005,0.013,1.504,0.036c0.498-0.023,1-0.036,1.504-0.036c0.595,0,1.185,0.017,1.77,0.05
		c0.585-0.033,1.155-0.05,1.748-0.05c5.828,0,11.2,2.02,15.51,5.457C44.166,29.446,37.379,26.035,29.843,26.035z"/>
	<path fill="#FFFF00" d="M29.843,29.417c-0.504,0-1.006,0.012-1.504,0.037c0.593,0.028,1.184,0.1,1.748,0.162
		c0.497-0.055,1.022-0.121,1.526-0.149C31.027,29.434,30.438,29.417,29.843,29.417z"/>
	<path fill="#008837" d="M33.363,29.417c-0.595,0-1.163,0.017-1.749,0.05c8.685,0.616,16.184,5.774,20.417,13.275l1.567-0.127
		c-1.169-2.875-2.77-5.472-4.728-7.743C44.559,31.437,39.19,29.417,33.363,29.417z"/>
	<path fill="#008837" d="M31.613,29.467c-0.504,0.028-1.028,0.094-1.526,0.149c8.144,1.089,15.1,6.19,19.045,13.37l2.899-0.242
		C47.798,35.243,40.3,30.083,31.613,29.467z"/>
	<path fill="#008837" d="M14.929,55.05c-0.037,0.542-0.055,1.113-0.055,1.667c0,9.263,6.037,16.861,13.756,17.731
		c0.648-0.099,1.258-0.181,1.827-0.288c-3.206-0.818-6.04-2.783-8.173-5.516C18.229,65.818,15.396,60.83,14.929,55.05z"/>
	<path fill="#008837" d="M18.178,42.278c-3.849,3.216-6.338,8.506-6.338,14.438c0,9.837,6.812,17.794,15.191,17.794
		c0.559,0,1.087-0.021,1.597-0.062c-7.72-0.87-13.754-8.468-13.754-17.732c0-0.551,0.017-1.123,0.055-1.666
		c-0.039-0.567-0.055-1.138-0.055-1.691C14.874,49.154,16.107,45.319,18.178,42.278z"/>
	<path fill="#008837" d="M55.091,54.854h-3.058h3.033c0.006,0.096,0.009,0.167,0.014,0.262
		C55.083,55.021,55.088,54.95,55.091,54.854z"/>
	<path fill="#008837" d="M55.066,54.854h-3.031c0.03,0.618,0.077,1.236,0.077,1.863c0,6.589-2.119,12.643-5.668,17.346
		c4.978-4.646,8.189-11.375,8.636-18.944C55.074,55.021,55.071,54.95,55.066,54.854z"/>
	<path fill="#FF0000" d="M26.833,29.417c-6.582,0-12.604,2.594-17.155,6.879C6.139,40.963,4.032,46.905,4.032,53.36
		c0,0.551,0.013,1.123,0.041,1.69c0.803-13.776,11.23-24.812,24.267-25.596C27.838,29.429,27.337,29.417,26.833,29.417z"/>
	<path fill="#FF0000" d="M28.339,29.454C15.303,30.238,4.875,41.274,4.072,55.05c0.477,8.226,4.396,15.476,10.26,20.153
		C10.125,70.338,7.55,63.856,7.55,56.717c0-13.918,9.824-25.399,22.537-27.102C29.523,29.554,28.934,29.482,28.339,29.454z"/>
	<path fill="#FF0000" d="M41.361,41.433c0.499,0.643,0.941,1.344,1.374,2.078l0.955-0.088
		C42.966,42.677,42.174,42.019,41.361,41.433z"/>
	<rect x="31.005" y="54.854" fill="#FF0000" width="3.518" height="5.348"/>
	<path fill="#FF0000" d="M43.808,63.56h-1.335c-0.97,1.892-2.259,3.496-3.833,4.741c-1.875,2.936-4.633,5.016-8.184,5.859
		c0.48,0.094,0.968,0.168,1.458,0.266C38.072,73.709,42.104,69.414,43.808,63.56z"/>
	<path fill="#FF0000" d="M47.306,63.56h-4.832h1.336c-1.706,5.854-5.738,10.149-11.896,10.866c0.557,0.057,1.099,0.084,1.67,0.084
		C40.774,74.51,45.442,69.997,47.306,63.56z"/>
	<path d="M30.456,74.16c-0.568,0.107-1.178,0.189-1.828,0.288c0.475,0.04,0.954,0.062,1.436,0.062c0.632,0,1.25-0.027,1.85-0.084
		C31.422,74.328,30.936,74.254,30.456,74.16z"/>
	<path d="M30.087,29.614C17.374,31.318,7.55,42.801,7.55,56.717c0,7.138,2.574,13.62,6.782,18.488
		c4.333,3.434,9.706,5.455,15.511,5.455c6.436,0,12.202-2.477,16.599-6.598c3.552-4.703,5.67-10.756,5.67-17.348
		c0-0.627-0.046-1.246-0.079-1.863h-7.379h-10.13V60.2h9.286c-0.352,1.203-0.806,2.326-1.336,3.36h4.832
		c-1.863,6.438-6.532,10.95-13.722,10.95c-0.571,0-1.113-0.029-1.67-0.084c-0.601,0.055-1.216,0.084-1.848,0.084
		c-0.484,0-0.964-0.021-1.438-0.062c-0.512,0.04-1.037,0.062-1.596,0.062c-8.379,0-15.192-7.957-15.192-17.792
		c0-5.933,2.489-11.221,6.338-14.439c2.767-4.078,7.08-6.711,11.888-6.711c4.482,0,8.506,2.275,11.292,5.867
		c0.813,0.585,1.609,1.243,2.329,1.988l5.444-0.438C45.186,35.806,38.23,30.707,30.087,29.614z"/>
	<polygon fill="#FFFF00" points="30.093,1 17.28,1 20.556,4.358 27.083,4.358 32.102,4.358 	"/>
	<polygon fill="#008837" points="32.102,4.358 27.083,4.358 30.093,4.358 35.914,14.203 37.901,14.203 	"/>
	<polygon fill="#008837" points="30.093,4.358 27.083,4.358 32.882,14.203 35.914,14.203 	"/>
	<polygon fill="#FF0000" points="20.798,4.358 20.557,4.358 30.093,14.203 30.335,14.203 	"/>
	<polygon points="27.083,4.358 20.798,4.358 30.335,14.203 32.882,14.203 	"/>	
</g>
</svg>
