<?xml version="1.0" encoding="utf-8"?>
<!-- Generator: Adobe Illustrator 16.0.0, SVG Export Plug-In . SVG Version: 6.00 Build 0)  -->
<!DOCTYPE svg PUBLIC "-//W3C//DTD SVG 1.1//EN" "http://www.w3.org/Graphics/SVG/1.1/DTD/svg11.dtd">
<svg version="1.1" id="Capa_1" xmlns="http://www.w3.org/2000/svg" xmlns:xlink="http://www.w3.org/1999/xlink" x="0px" y="0px"
	 width="120px" height="50px" viewBox="0 0 120 50" enable-background="new 0 0 120 50" xml:space="preserve">
<path fill="#666666" d="M39.898,29.973c0,11.024-8.932,19.965-19.949,19.965C8.945,49.938,0.021,41.02,0,30.011V0.063h39.898V29.973
	z"/>
<polygon fill="#FFFFFF" points="15.06,10.054 20.028,15.021 22.973,15.021 19.851,10.054 "/>
<path fill="#FFFFFF" d="M20.345,32.493h4.699c-0.34,1.854-1.801,4.099-4.96,4.099c-3.524,0-5.743-3.158-5.743-6.684
	c0-4.178,2.401-6.683,5.481-6.683c2.741,0,4.151,1.148,4.855,2.871l4.099-0.261c-0.731-2.089-2.506-6.108-8.955-6.108
	c-5.821,0-9.554,4.907-9.554,10.181c0,5.273,3.733,10.182,9.554,10.182c5.404,0,9.424-3.654,9.581-10.938h-9.059L20.345,32.493
	L20.345,32.493z"/>
<path fill="#666666" d="M54.003,16.375h-2.762l1.368-4.54L54.003,16.375z M48.214,19.939h1.953l0.572-1.921h3.767l0.572,1.921h1.953
	l-3.32-9.915h-2.176L48.214,19.939z M59.971,12.894H58.27v7.241c0,0.502-0.53,0.585-0.81,0.585h-0.069v1.56h0.223
	c1.172,0,2.357-0.25,2.357-1.573V12.894z M58.27,11.751h1.702v-1.727H58.27V11.751z M67.979,12.894h-1.701v3.788
	c0,0.85-0.391,1.782-1.676,1.782c-0.862,0-1.254-0.418-1.254-1.393v-4.178h-1.703v4.665c0,2.047,1.381,2.549,2.582,2.549
	c0.961,0,1.646-0.376,2.021-0.864l0.029,0.696h1.701V12.894L67.979,12.894z M69.373,19.939h1.703v-3.718
	c0-1.295,0.684-1.853,1.506-1.853c0.879,0,1.172,0.627,1.172,1.268v4.303h1.701v-4.817c0-1.546-0.752-2.396-2.426-2.396
	c-0.685,0-1.424,0.25-1.926,0.863l-0.027-0.696h-1.703V19.939z M77.533,12.894H76.5v1.226h1.033v4.205
	c0,1.072,0.473,1.699,1.869,1.699c0.529,0,0.947-0.084,1.354-0.167v-1.393c-0.252,0.027-0.518,0.083-0.754,0.083
	c-0.656,0-0.768-0.306-0.768-0.863V14.12h1.521v-1.226h-1.521V10.4h-1.701V12.894z M87.838,15.038c0-2.005-1.52-2.312-3.041-2.312
	c-1.549,0-3.014,0.641-3.014,2.298l1.703,0.069c0-0.766,0.32-1.059,1.311-1.059c0.74,0,1.34,0.195,1.34,0.892v0.209
	c-0.434,0.153-1.229,0.292-1.842,0.417l-0.711,0.14c-1.047,0.209-2.148,0.822-2.148,2.2c0,1.365,1.06,2.215,2.398,2.215
	c0.879,0,1.646-0.279,2.303-0.808c0,0.181,0.055,0.474,0.168,0.64h1.799c-0.098-0.152-0.266-0.459-0.266-1.184V15.038z
	 M86.137,17.419c0,0.905-1.02,1.296-1.813,1.296c-0.613,0-1.103-0.349-1.103-0.878c0-0.668,0.529-0.85,1.172-0.975l0.937-0.195
	c0.307-0.056,0.584-0.139,0.81-0.25v1.002H86.137z M89.287,19.939h1.701v-3.718c0-1.003,0.572-1.936,1.494-1.936
	c0.822,0,1.186,0.57,1.186,1.379v4.274h1.701V16.22c0-1.003,0.572-1.936,1.521-1.936c0.795,0,1.157,0.57,1.157,1.379v4.274h1.701
	V14.98c0-1.518-0.935-2.256-2.47-2.256c-0.948,0-1.659,0.376-2.176,1.059c-0.35-0.78-1.242-1.059-2.08-1.059
	c-0.905,0-1.52,0.334-2.037,0.863v-0.696h-1.7L89.287,19.939L89.287,19.939z M107.838,16.82c0-2.521-1.031-4.094-3.389-4.094
	c-2.289,0-3.613,1.587-3.613,3.69s1.324,3.69,3.613,3.69c1.926,0,2.943-0.92,3.473-1.727l-1.436-0.836
	c-0.168,0.236-0.699,1.002-2.037,1.002c-0.922,0-1.801-0.682-1.828-1.727h5.217V16.82z M102.621,15.512
	c0.182-0.752,0.838-1.393,1.828-1.393c1.145,0,1.604,1.017,1.604,1.393H102.621z M108.758,19.939h1.701v-3.718
	c0-1.295,0.684-1.853,1.508-1.853c0.879,0,1.172,0.627,1.172,1.268v4.303h1.701v-4.817c0-1.546-0.754-2.396-2.428-2.396
	c-0.684,0-1.422,0.25-1.926,0.863l-0.027-0.696h-1.701V19.939z M116.777,12.894h-1.033v1.226h1.033v4.205
	c0,1.072,0.475,1.699,1.869,1.699c0.53,0,0.948-0.084,1.354-0.167v-1.393c-0.252,0.027-0.516,0.083-0.754,0.083
	c-0.656,0-0.768-0.306-0.768-0.863V14.12H120v-1.226h-1.521V10.4h-1.701V12.894L116.777,12.894z"/>
<path fill="#666666" d="M54.596,34.868h1.702v-9.915h-1.702v3.467c-0.516-0.475-1.172-0.766-2.009-0.766
	c-1.813,0-3.069,1.656-3.069,3.689s1.255,3.69,3.069,3.69c1.019,0,1.562-0.349,1.981-0.851L54.596,34.868z M52.977,29.214
	c1.284,0,1.661,1.114,1.674,2.132c-0.014,1.016-0.391,2.131-1.674,2.131c-1.283,0-1.66-1.115-1.674-2.131
	C51.317,30.328,51.694,29.214,52.977,29.214z M97.248,32.348c0,0.904-1.018,1.295-1.812,1.295c-0.615,0-1.102-0.349-1.102-0.877
	c0-0.668,0.529-0.851,1.17-0.976l0.936-0.194c0.308-0.056,0.586-0.14,0.81-0.25L97.248,32.348L97.248,32.348z M98.951,29.966
	c0-2.005-1.521-2.312-3.041-2.312c-1.549,0-3.014,0.641-3.014,2.298l1.701,0.069c0-0.767,0.319-1.059,1.312-1.059
	c0.737,0,1.338,0.194,1.338,0.891v0.209c-0.433,0.153-1.228,0.293-1.843,0.418l-0.711,0.14c-1.047,0.209-2.147,0.821-2.147,2.2
	c0,1.365,1.062,2.215,2.399,2.215c0.88,0,1.646-0.278,2.302-0.809c0,0.182,0.057,0.475,0.168,0.642h1.799
	c-0.098-0.153-0.264-0.46-0.264-1.185L98.951,29.966L98.951,29.966z M95.742,24.953h-1.869l1.98,2.005h1.157L95.742,24.953z
	 M88.227,34.868h1.785l2.33-7.048h-1.801l-1.408,4.875l-1.438-4.875h-1.799L88.227,34.868z M83.428,32.348
	c0,0.904-1.018,1.295-1.812,1.295c-0.615,0-1.104-0.349-1.104-0.877c0-0.668,0.531-0.851,1.174-0.976l0.935-0.194
	c0.307-0.056,0.586-0.14,0.81-0.25v1.002H83.428z M85.131,29.966c0-2.005-1.521-2.312-3.041-2.312c-1.549,0-3.014,0.641-3.014,2.298
	l1.701,0.069c0-0.767,0.322-1.059,1.312-1.059c0.738,0,1.338,0.194,1.338,0.891v0.209c-0.432,0.153-1.227,0.293-1.84,0.418
	l-0.713,0.14c-1.047,0.209-2.147,0.821-2.147,2.2c0,1.365,1.061,2.215,2.399,2.215c0.879,0,1.646-0.278,2.301-0.809
	c0,0.182,0.058,0.475,0.168,0.642h1.802c-0.099-0.153-0.267-0.46-0.267-1.185L85.131,29.966L85.131,29.966z M77.586,27.611
	c-0.754-1.894-2.205-2.909-4.229-2.909c-2.972,0-4.756,2.409-4.756,5.208c0,2.8,1.575,5.208,4.756,5.208
	c0.865,0,1.953-0.361,2.608-1.101v0.851h1.619v-5.417h-4.158v1.643h2.455c0,1.365-1.198,2.299-2.524,2.299
	c-1.98,0-2.806-1.756-2.806-3.481s0.824-3.481,2.806-3.481c1.646,0,2.274,1.102,2.483,1.896L77.586,27.611z M59.032,30.439
	c0.181-0.752,0.837-1.394,1.827-1.394c1.146,0,1.605,1.017,1.605,1.394H59.032z M64.25,31.748c0-2.521-1.033-4.094-3.391-4.094
	c-2.289,0-3.613,1.588-3.613,3.689s1.325,3.69,3.613,3.69c1.926,0,2.942-0.919,3.475-1.728l-1.438-0.836
	c-0.168,0.237-0.697,1.004-2.037,1.004c-0.921,0-1.8-0.684-1.828-1.729h5.219V31.748z"/>
</svg>
